<svg width="376" height="156"><defs id="SvgjsDefs1323"></defs><g id="SvgjsG1324" featurekey="root" fill="#ffffff"></g><g id="SvgjsG1325" featurekey="container1" fill="#023458" transform="matrix(0.7646195024865815,0,0,0.7646195024865815,0,0)"><defs xmlns="http://www.w3.org/2000/svg"></defs><g xmlns="http://www.w3.org/2000/svg">  <path d="M102.174,199.588c53.8,0,97.413-43.613,97.413-97.413S155.974,4.762,102.174,4.762S4.761,48.375,4.761,102.175    S48.375,199.588,102.174,199.588z M102.174,9.762c50.957,0,92.413,41.457,92.413,92.413s-41.456,92.413-92.413,92.413    c-50.957,0-92.413-41.457-92.413-92.413S51.218,9.762,102.174,9.762z"></path>  <path d="M102.174,191.585c49.38,0,89.41-40.03,89.41-89.41s-40.03-89.41-89.41-89.41c-49.38,0-89.41,40.03-89.41,89.41    S52.794,191.585,102.174,191.585z M102.174,14.765c48.198,0,87.41,39.212,87.41,87.41s-39.212,87.41-87.41,87.41    c-48.198,0-87.41-39.212-87.41-87.41S53.976,14.765,102.174,14.765z"></path>  <path d="M102.174,204.35c56.339,0,102.174-45.835,102.174-102.175S158.513,0,102.174,0C45.835,0,0,45.835,0,102.175    S45.835,204.35,102.174,204.35z M102.174,2c55.236,0,100.174,44.938,100.174,100.175S157.411,202.35,102.174,202.35    C46.938,202.35,2,157.411,2,102.175S46.938,2,102.174,2z"></path></g></g><g id="SvgjsG1326" featurekey="text4" fill="#023458" transform="matrix(6.77169701308574,0,0,6.77169701308574,33.88778429010045,-5.246546357322629)"><path d="M4.6 4.880000000000001 l-2.46 -0.14 q-0.04 0 -0.04 -0.06 q0 -0.04 0.06 -0.04 l2.44 0.14 q0.04 0 0.04 0.06 q0 0.04 -0.04 0.04 z M4.6 4.880000000000001 q-0.06 0 -0.06 -0.04 q0 -0.06 0.06 -0.06 l2.16 -0.14 q0.04 0 0.04 0.04 q0 0.06 -0.04 0.06 z M9.22 4.800000000000001 l-2.46 -0.06 q-0.06 -0.02 -0.06 -0.06 t0.06 -0.04 l2.46 0.06 q0.04 0 0.04 0.06 q0 0.04 -0.04 0.04 z M9.22 4.800000000000001 q-0.06 0 -0.06 -0.04 q0 -0.06 0.06 -0.06 l1.56 -0.06 q0.04 0 0.04 0.04 q0 0.06 -0.04 0.06 z M2.28 6.859999999999999 q-0.04 0 -0.04 -0.04 l-0.14 -2.14 q0 -0.04 0.04 -0.04 q0.06 0 0.06 0.04 l0.14 2.12 q0 0.06 -0.06 0.06 z M2.22 8.98 q-0.04 0 -0.04 -0.06 l0.06 -2.12 q0 -0.04 0.04 -0.04 q0.06 0 0.06 0.06 l-0.06 2.1 q0 0.06 -0.06 0.06 z M2.22 11.9 q-0.04 0 -0.04 -0.06 l0 -2.92 q0 -0.04 0.04 -0.04 q0.06 0 0.06 0.04 l0 2.92 q0 0.06 -0.06 0.06 z M2.28 14.719999999999999 q-0.04 0 -0.04 -0.04 l-0.06 -2.84 q0 -0.04 0.04 -0.04 q0.06 -0.02 0.06 0.04 l0.06 2.84 q0 0.04 -0.06 0.04 z M2.16 17.36 l-0.02 0 q-0.04 0 -0.04 -0.06 l0.14 -2.62 q0 -0.06 0.04 -0.06 q0.06 0 0.06 0.06 l-0.14 2.62 q0 0.06 -0.04 0.06 z M2.14 18.92 q-0.04 0 -0.04 -0.04 l0 -1.58 q0 -0.04 0.06 -0.04 q0.04 0 0.04 0.04 l0 1.58 q0 0.04 -0.06 0.04 z M2.16 20.06 q-0.06 0 -0.06 -0.06 l0 -1.12 q0 -0.06 0.04 -0.06 q0.06 0 0.06 0.06 l0 1.12 q0 0.06 -0.04 0.06 z M2.22 5.960000000000001 q-0.04 0 -0.04 -0.04 t0.02 -0.06 l2.38 -1.08 q0.04 0 0.06 0.02 q0.02 0.04 -0.02 0.08 l-2.38 1.08 l-0.02 0 z M3.76 7.1 q-0.02 0 -0.04 -0.02 l-1.52 -1.14 q-0.02 -0.02 -0.02 -0.06 q0.04 -0.04 0.08 -0.02 l1.52 1.14 q0.04 0.06 0.02 0.08 z M3.76 7.1 q-0.02 0 -0.06 -0.04 q0 -0.04 0.04 -0.06 l1.08 -0.56 q0.04 -0.04 0.06 0.02 q0.02 0.02 -0.02 0.06 l-1.08 0.56 z M4.84 6.52 l-0.02 0 l-2.6 -0.56 q-0.04 -0.02 -0.04 -0.06 q0 -0.1 0.06 -0.04 l2.6 0.56 q0.04 0.02 0.04 0.06 t-0.04 0.04 z M4.84 6.52 q-0.06 0 -0.06 -0.04 l-0.24 -1.64 q0 -0.06 0.04 -0.06 q0.06 0 0.06 0.04 l0.24 1.64 q0 0.06 -0.04 0.06 z M4.84 6.52 q-0.04 0 -0.04 -0.02 q-0.04 -0.02 0 -0.06 l0.98 -0.82 q0.04 -0.04 0.08 0 q0.06 0.06 -0.02 0.06 l-0.98 0.84 l-0.02 0 z M5.82 5.699999999999999 l-0.04 0 l-1.22 -0.84 q-0.06 0 0 -0.06 q0 -0.02 0.06 -0.02 l1.22 0.84 q0.08 0 0.02 0.06 q-0.02 0.02 -0.04 0.02 z M5.82 5.699999999999999 l-0.04 0 q-0.04 -0.04 0 -0.08 l0.68 -0.96 q0.04 -0.04 0.08 -0.02 q0.02 0.02 0 0.08 l-0.68 0.96 q-0.02 0.02 -0.04 0.02 z M7.36 5.699999999999999 q-0.02 0 -0.04 -0.02 l-0.86 -0.96 q-0.04 -0.02 0.02 -0.08 q0.02 -0.02 0.06 0 l0.86 0.98 q0.06 0.06 0 0.06 z M5.82 5.699999999999999 q-0.06 0 -0.06 -0.04 q0 -0.06 0.06 -0.06 l1.54 0 q0.04 0 0.04 0.06 q0 0.04 -0.04 0.04 l-1.54 0 z M6.46 6.859999999999999 q-0.02 0 -0.02 -0.02 q-0.08 0 -0.02 -0.06 l0.9 -1.16 q0.02 -0.02 0.06 0 q0.08 0 0.02 0.06 l-0.9 1.16 q0 0.02 -0.04 0.02 z M6.46 6.859999999999999 q-0.02 0 -0.02 -0.01 t-0.02 -0.01 l-0.64 -1.16 q-0.04 -0.04 0.02 -0.08 q0.04 0 0.06 0.02 l0.64 1.16 q0.04 0.04 -0.02 0.08 l-0.02 0 z M6.46 6.859999999999999 l-1.64 -0.34 q-0.04 0 -0.04 -0.06 q0.04 -0.04 0.06 -0.04 l1.64 0.34 q0.04 0 0.04 0.06 q-0.04 0.04 -0.06 0.04 z M5.46 7.76 q-0.02 0 -0.04 -0.02 q-0.04 -0.02 0 -0.06 l1.02 -0.9 q0.02 -0.02 0.06 0 q0.02 0.04 0 0.06 l-1 0.9 q-0.02 0.02 -0.04 0.02 z M5.46 7.76 q-0.06 0 -0.06 -0.04 q0 -0.06 0.06 -0.06 l1.9 0 q0.04 0 0.04 0.06 q0 0.04 -0.04 0.04 l-1.9 0 z M7.36 7.76 q-0.02 0 -0.04 -0.02 l-0.9 -0.9 q-0.04 -0.02 0 -0.06 t0.08 0 l0.9 0.9 q0.02 0.04 0 0.06 t-0.04 0.02 z M5.46 7.76 q-0.04 0 -0.04 -0.02 l-0.62 -1.24 q-0.06 -0.06 0.02 -0.06 q0.04 -0.04 0.06 0.02 l0.62 1.22 q0.02 0.04 -0.02 0.08 l-0.02 0 z M5.46 7.76 l-0.02 0 l-1.7 -0.66 q-0.04 -0.02 -0.04 -0.08 q0.04 -0.04 0.08 -0.02 l1.7 0.66 q0.04 0.04 0.02 0.06 q0 0.04 -0.04 0.04 z M3.76 7.1 l-0.02 0 l-1.46 -0.24 q-0.04 0 -0.04 -0.06 q0 -0.04 0.06 -0.04 l1.46 0.24 q0.04 0 0.04 0.06 q0 0.04 -0.04 0.04 z M3.74 8.36 q-0.04 0 -0.04 -0.06 l0 -1.24 q0 -0.06 0.06 -0.06 q0.04 0 0.04 0.04 l0 1.26 q0 0.06 -0.06 0.06 z M2.22 8.98 q-0.04 0 -0.04 -0.04 q0 -0.06 0.02 -0.06 l1.54 -0.62 q0.02 -0.02 0.06 0.02 q0 0.06 -0.04 0.06 l-1.52 0.62 q0 0.02 -0.02 0.02 z M3.74 8.36 l-0.02 -0.02 l-1.48 -1.5 q0 -0.04 0.02 -0.06 q0 -0.06 0.06 0 l1.46 1.48 q0.04 0.04 0 0.08 q-0.02 0.02 -0.04 0.02 z M3.74 8.36 q-0.04 0 -0.04 -0.04 q0 -0.06 0.04 -0.06 l1.7 -0.6 q0.06 0 0.06 0.04 q0.06 0.06 -0.02 0.06 l-1.72 0.58 q0 0.02 -0.02 0.02 z M8.46 6.52 l-0.02 0 l-1.12 -0.82 q-0.04 -0.04 0 -0.08 q0.02 -0.02 0.06 0 l1.12 0.82 q0.02 0.04 0 0.06 q0 0.02 -0.04 0.02 z M6.46 6.859999999999999 q-0.04 0 -0.04 -0.04 q0 -0.06 0.04 -0.06 l2 -0.34 q0.02 0 0.06 0.04 q0 0.06 -0.04 0.06 l-2 0.34 l-0.02 0 z M7.36 7.76 q-0.02 0 -0.04 -0.02 q-0.04 -0.02 0 -0.06 l1.1 -1.24 q0.04 -0.04 0.08 0 q0.02 0.04 0 0.06 l-1.1 1.24 q-0.02 0.02 -0.04 0.02 z M8.46 6.52 l-0.02 0 q-0.08 0 -0.02 -0.06 l0.42 -1.12 q0 -0.08 0.06 -0.02 q0.04 0 0.04 0.06 l-0.42 1.12 q-0.02 0.02 -0.06 0.02 z M7.36 5.699999999999999 q-0.02 0 -0.06 -0.04 q0 -0.06 0.04 -0.06 l1.54 -0.28 q0.02 0 0.06 0.04 q0 0.06 -0.04 0.06 z M8.88 5.42 l-2.38 -0.68 q-0.06 -0.04 -0.04 -0.08 q0 -0.08 0.06 -0.02 l2.38 0.68 q0.04 0 0.04 0.06 q-0.04 0.04 -0.06 0.04 z M8.88 5.42 l-0.02 0 q-0.06 -0.04 -0.02 -0.08 l0.34 -0.6 q0 -0.08 0.06 -0.02 q0.08 0 0.02 0.06 l-0.34 0.62 q-0.02 0.02 -0.04 0.02 z M10.78 7.1 l-0.04 -0.02 l-1.88 -1.68 q-0.04 -0.04 -0.02 -0.06 t0.08 -0.02 l1.88 1.68 q0.04 0.04 0 0.08 z M10.78 7.1 q-0.06 0 -0.06 -0.06 l0 -2.36 q0 -0.04 0.04 -0.04 q0.06 0 0.06 0.04 l0 2.36 q0 0.06 -0.04 0.06 z M10.78 7.1 q-0.02 0 -0.06 -0.04 l-1.54 -2.28 q-0.06 -0.06 0 -0.06 q0.04 -0.04 0.08 0 l1.56 2.3 q0 0.04 -0.02 0.06 z M9.42 7.779999999999999 q-0.02 0 -0.04 -0.02 l-0.96 -1.26 q-0.02 -0.02 0.02 -0.06 q0.02 -0.02 0.06 0 l0.96 1.26 q0.04 0.04 0 0.08 l-0.04 0 z M9.42 7.779999999999999 q-0.04 0 -0.04 -0.02 q-0.02 -0.04 0.02 -0.08 l1.34 -0.68 q0.04 -0.02 0.08 0.02 q0 0.06 -0.02 0.06 l-1.36 0.7 l-0.02 0 z M9.42 7.779999999999999 q-0.04 0 -0.04 -0.04 l-0.54 -2.36 q0 -0.06 0.04 -0.06 t0.06 0.04 l0.54 2.36 q0 0.06 -0.04 0.06 l-0.02 0 z M10.9 7.92 l-1.48 -0.14 q-0.04 0 -0.04 -0.06 q0 -0.04 0.04 -0.04 l1.48 0.14 q0.04 0 0.04 0.06 q0 0.04 -0.04 0.04 z M10.9 7.92 q-0.06 0 -0.06 -0.04 l-0.12 -0.84 q0 -0.04 0.04 -0.04 q0.06 -0.02 0.06 0.04 l0.12 0.82 q0 0.06 -0.04 0.06 z M9.42 7.779999999999999 l-2.06 -0.02 q-0.06 0 -0.06 -0.04 q0 -0.06 0.06 -0.06 l2.06 0.02 q0.06 0 0.06 0.06 q0 0.04 -0.06 0.04 z M3.8 10.42 q-0.02 0 -0.06 -0.04 l-0.04 -2.08 q0 -0.04 0.04 -0.04 q0.06 0 0.06 0.04 l0.04 2.06 q0.02 0.06 -0.04 0.06 z M3.8 10.42 q-0.02 0 -0.04 -0.02 l-1.56 -1.44 q-0.04 -0.04 0 -0.08 q0 -0.06 0.06 0 l1.58 1.46 q0.02 0.04 0 0.06 t-0.04 0.02 z M4.32 9.18 q-0.02 0 -0.04 -0.02 l-0.58 -0.82 q0 -0.06 0.02 -0.08 t0.08 0.02 l0.56 0.82 q0.04 0.04 0 0.08 l-0.04 0 z M3.8 10.42 l-0.02 0 q-0.04 -0.04 -0.02 -0.06 l0.52 -1.24 q0 -0.04 0.06 -0.04 q0.04 0.02 0.04 0.08 l-0.54 1.24 q-0.02 0.02 -0.04 0.02 z M4.32 9.18 l-0.02 0 q-0.06 -0.04 -0.02 -0.08 l1.14 -1.42 q0.02 -0.02 0.06 0 q0.08 0 0.02 0.06 l-1.14 1.42 q0 0.02 -0.04 0.02 z M5.46 9.3 l-0.02 0 l-1.12 -0.12 q-0.04 0 -0.04 -0.06 q0 -0.04 0.06 -0.04 l1.12 0.12 q0.04 0 0.04 0.06 q0 0.04 -0.04 0.04 z M5.46 9.3 q-0.06 0 -0.06 -0.04 l0 -1.54 q0 -0.06 0.06 -0.06 q0.04 0 0.04 0.06 l0 1.54 q0 0.04 -0.04 0.04 z M5.44 10.86 q-0.04 -0.04 -0.04 -0.06 l0 -1.54 q0 -0.06 0.06 -0.06 q0.04 0 0.04 0.06 l0 1.54 q0 0.06 -0.06 0.06 z M5.44 10.86 l-0.04 -0.04 l-1.12 -1.66 q-0.06 -0.06 0.02 -0.06 q0.06 -0.06 0.06 0 l1.14 1.68 q0 0.04 -0.02 0.06 q-0.02 0 -0.02 0.01 t-0.02 0.01 z M5.44 10.86 l0 -0.02 l-1.66 -0.42 q-0.08 0 -0.02 -0.06 q0 -0.04 0.06 -0.04 l1.64 0.44 q0.04 0 0.04 0.06 q0 0.04 -0.06 0.04 z M5.44 10.86 q-0.04 0 -0.04 -0.06 q0 -0.04 0.04 -0.04 l1.46 -0.08 q0.06 0 0.06 0.04 q0 0.06 -0.04 0.06 l-1.46 0.08 l-0.02 0 z M8.4 10.94 l-0.02 0 l-1.48 -0.16 q-0.04 0 -0.04 -0.06 q0 -0.04 0.06 -0.04 l1.48 0.16 q0.04 0 0.04 0.06 q0 0.04 -0.04 0.04 z M8.4 10.94 q-0.06 0 -0.06 -0.04 q0 -0.06 0.04 -0.06 l1.3 -0.16 q0.06 0 0.06 0.04 q0 0.06 -0.04 0.06 z M10.78 10.86 l-0.02 0 l-1.06 -0.08 q-0.06 0 -0.06 -0.06 q0 -0.04 0.06 -0.04 l1.08 0.08 q0.04 0 0.04 0.04 q0 0.06 -0.04 0.06 z M10.78 12.36 q-0.06 0 -0.06 -0.04 l0 -1.52 q0 -0.04 0.06 -0.04 q0.04 0 0.04 0.04 l0 1.52 q0 0.04 -0.04 0.04 z M10.78 13.84 q-0.06 0 -0.06 -0.04 l0 -1.48 q0 -0.06 0.06 -0.06 q0.04 0 0.04 0.06 l0 1.48 q0 0.04 -0.04 0.04 z M4.02 11.9 l-0.02 0 l-1.76 -0.62 q-0.04 0 -0.04 -0.06 q0.04 -0.04 0.08 -0.02 l1.76 0.6 q0.08 0 0.02 0.06 q0 0.04 -0.04 0.04 z M4.02 11.9 q-0.04 0 -0.04 -0.04 l-0.22 -1.48 q-0.06 -0.06 0.04 -0.06 q0.04 0 0.04 0.04 l0.24 1.48 q0 0.04 -0.06 0.06 z M3.14 10.94 q-0.04 0 -0.04 -0.02 l-0.92 -1.98 q0 -0.06 0.02 -0.06 q0.04 -0.02 0.08 0.02 l0.9 1.98 q0.02 0.02 -0.02 0.06 l-0.02 0 z M2.26 11.28 q-0.04 0 -0.04 -0.02 q-0.06 -0.06 0.02 -0.06 l0.88 -0.36 q0.06 0 0.06 0.04 q0.02 0.02 -0.02 0.06 l-0.88 0.34 l-0.02 0 z M3.14 10.94 q-0.02 0 -0.04 -0.02 q-0.06 -0.06 0 -0.06 l0.66 -0.52 q0.06 -0.02 0.08 0 q0.04 0.04 0 0.08 l-0.66 0.52 l-0.04 0 z M4.02 11.9 q-0.02 0 -0.02 -0.01 t-0.02 -0.01 q-0.04 -0.02 0.02 -0.08 l1.42 -1.04 q0.06 -0.06 0.06 0.02 q0.02 0.04 0 0.06 l-1.42 1.04 q-0.02 0.02 -0.04 0.02 z M3.42 13.34 l-0.02 0 q-0.04 -0.02 -0.04 -0.06 l0.62 -1.46 q0 -0.08 0.06 -0.02 q0.08 0 0.02 0.06 l-0.6 1.46 q0 0.02 -0.04 0.02 z M3.42 13.34 l-0.02 0 l-1.2 -0.5 q-0.02 0 -0.02 -0.06 q0.04 -0.04 0.06 -0.02 l1.2 0.48 q0.02 0.02 0.02 0.08 q0 0.02 -0.04 0.02 z M3.42 13.34 q-0.04 0 -0.06 -0.02 l-1.14 -2.06 q-0.06 -0.06 0.02 -0.06 q0.04 -0.04 0.06 0.02 l1.16 2.04 q0 0.06 -0.02 0.08 l-0.02 0 z M6.22 12.16 q-0.02 0 -0.03 -0.01 t-0.03 -0.01 l-0.76 -1.32 q0 -0.04 0.02 -0.06 t0.08 0.02 l0.76 1.3 q0.02 0.04 -0.02 0.08 l-0.02 0 z M6.22 12.16 l-0.02 0 q-0.04 -0.02 -0.04 -0.08 l0.7 -1.38 q0.02 -0.02 0.08 -0.02 q0.02 0.02 0.02 0.08 l-0.7 1.38 q-0.02 0 -0.02 0.01 t-0.02 0.01 z M7.68 12.64 l-0.02 0 l-1.46 -0.48 q-0.04 -0.04 -0.04 -0.06 q0.02 -0.04 0.06 -0.04 l1.48 0.48 q0.04 0.04 0.02 0.06 q0 0.04 -0.04 0.04 z M7.68 12.64 l-0.02 0 q-0.04 -0.04 -0.02 -0.08 l0.7 -1.68 q0.02 -0.04 0.08 -0.04 q0.02 0.02 0.02 0.08 l-0.72 1.68 q0 0.04 -0.04 0.04 z M7.68 12.64 q-0.04 0 -0.04 -0.04 l-0.78 -1.86 q0 -0.04 0.04 -0.06 q0.04 0 0.06 0.02 l0.76 1.86 q0.02 0.04 -0.02 0.08 l-0.02 0 z M7.68 12.64 q-0.02 0 -0.04 -0.02 q-0.04 -0.02 0 -0.06 l2.02 -1.86 q0.04 -0.04 0.08 0 q0.02 0.02 -0.02 0.06 l-2 1.86 q-0.02 0.02 -0.04 0.02 z M10.78 12.36 q-0.04 0 -0.06 -0.02 l-1.06 -1.58 q-0.04 -0.04 0 -0.08 q0.06 0 0.08 0.02 l1.08 1.58 q0 0.06 -0.02 0.08 l-0.02 0 z M9.58 12.86 q-0.02 0 -0.06 -0.04 q0 -0.02 0.04 -0.06 l1.2 -0.5 q0.04 0 0.06 0.04 q0 0.04 -0.04 0.06 l-1.18 0.5 l-0.02 0 z M9.58 12.86 q-0.06 0 -0.06 -0.06 l0.12 -2.08 q0 -0.04 0.06 -0.04 q0.04 0 0.04 0.06 l-0.12 2.08 q0 0.04 -0.04 0.04 z M10.78 13.84 l-0.04 0 l-1.2 -1 q-0.04 -0.02 0 -0.06 q0.02 -0.02 0.06 -0.02 l1.2 1 q0.04 0.04 0.02 0.06 t-0.04 0.02 z M10.78 13.84 l-0.02 0 l-2.08 -0.54 q-0.06 0 -0.02 -0.06 q0 -0.04 0.06 -0.04 l2.06 0.54 q0.06 0.04 0.04 0.06 q0 0.04 -0.04 0.04 z M8.7 13.3 q-0.04 0 -0.04 -0.02 q-0.06 -0.06 0.02 -0.06 l0.88 -0.46 q0.04 0 0.06 0.02 q0.02 0.04 -0.02 0.08 l-0.88 0.44 l-0.02 0 z M10.78 13.84 l-3.06 0 q-0.06 0 -0.06 -0.04 q0 -0.06 0.06 -0.06 l3.06 0 q0.04 0 0.04 0.06 q0 0.04 -0.04 0.04 z M7.72 13.84 q-0.04 0 -0.04 -0.02 q-0.04 -0.02 0.02 -0.08 l1.2 -0.64 q0.04 0 0.06 0.02 q0.02 0.04 -0.02 0.08 l-1.2 0.64 l-0.02 0 z M8.7 13.3 l-0.02 0 q-0.08 0 -0.02 -0.06 l0.98 -2.52 q0.02 -0.04 0.08 -0.04 q0.04 0.04 0.02 0.06 l-1 2.54 q0 0.02 -0.04 0.02 z M8.7 13.3 l-0.02 0 l-1.02 -0.66 q-0.06 -0.04 -0.02 -0.08 q0.02 -0.02 0.06 -0.02 l1.02 0.68 q0.06 0.02 0.02 0.06 q0 0.02 -0.04 0.02 z M7.72 13.84 q-0.06 0 -0.06 -0.04 l-0.02 -1.2 q-0.04 -0.06 0.04 -0.06 q0.02 0 0.06 0.04 l0.02 1.2 q0 0.06 -0.04 0.06 z M6.22 12.16 l-0.02 0 l-2.18 -0.26 q-0.1 0 -0.04 -0.06 q0 -0.04 0.04 -0.04 l2.2 0.26 q0.04 0 0.04 0.06 q0 0.04 -0.04 0.04 z M7.72 13.84 q-0.02 0 -0.04 -0.02 l-1.5 -1.68 q-0.06 -0.06 0 -0.06 q0.04 -0.04 0.08 0 l1.5 1.68 q0.02 0.04 0 0.06 t-0.04 0.02 z M6.4 13.84 q-0.04 0 -0.04 -0.04 l-0.2 -1.68 q0 -0.06 0.04 -0.06 q0.06 0 0.06 0.04 l0.2 1.7 q0 0.04 -0.04 0.04 l-0.02 0 z M6.4 13.84 q-0.04 0 -0.04 -0.04 q0 -0.06 0.04 -0.06 l1.32 0 q0.04 0 0.04 0.06 q0 0.04 -0.04 0.04 l-1.32 0 z M6.4 13.84 l-1.08 -0.04 q-0.04 0 -0.04 -0.04 q0 -0.06 0.04 -0.06 l1.1 0.04 q0.04 0 0.04 0.06 q0 0.04 -0.06 0.04 z M5.32 13.8 l-0.02 0 q-0.04 -0.04 -0.02 -0.08 l0.88 -1.64 q0.02 -0.02 0.08 -0.02 q0.04 0.04 0.02 0.08 l-0.9 1.64 q0 0.02 -0.04 0.02 z M5.32 13.8 q-0.02 0 -0.04 -0.02 l-1.3 -1.9 q-0.02 -0.04 0.02 -0.08 q0.02 -0.02 0.06 0.02 l1.3 1.9 q0.04 0.04 0 0.08 l-0.04 0 z M4.44 14.42 q-0.02 0 -0.04 -0.02 l-1.02 -1.08 q-0.04 -0.02 0 -0.06 q0.02 -0.02 0.06 0 l1.04 1.08 q0.02 0.04 0 0.06 q0 0.02 -0.04 0.02 z M4.44 14.42 q-0.02 0 -0.04 -0.02 q-0.06 -0.06 0.02 -0.06 l0.88 -0.62 q0.02 -0.02 0.06 0 q0.04 0.04 0 0.08 l-0.88 0.62 l-0.04 0 z M4.44 14.42 q-0.04 0 -0.04 -0.04 l-0.42 -2.52 q-0.04 -0.06 0.04 -0.06 q0.04 0 0.06 0.04 l0.42 2.52 q0 0.06 -0.04 0.06 l-0.02 0 z M5.46 15.4 q-0.02 0 -0.04 -0.02 l-1 -0.98 q-0.02 -0.02 -0.02 -0.06 q0.04 -0.04 0.08 0 l1.02 0.98 q0.02 0.04 0 0.06 t-0.04 0.02 z M5.46 15.4 q-0.02 0 -0.06 -0.04 l-0.12 -1.6 q0 -0.06 0.04 -0.06 q0.06 0 0.06 0.04 l0.12 1.6 q0.02 0.06 -0.04 0.06 z M5.46 17.02 q-0.06 0 -0.06 -0.04 l0 -1.62 q0 -0.06 0.06 -0.06 q0.04 0 0.04 0.06 l0 1.6 q0 0.06 -0.04 0.06 z M5.46 17.02 l-0.02 0 l-1.24 -0.66 q-0.02 -0.02 -0.02 -0.08 q0.02 -0.02 0.08 -0.02 l1.22 0.66 q0.04 0.04 0.02 0.08 q0 0.02 -0.04 0.02 z M4.24 16.36 q-0.04 0 -0.04 -0.02 q-0.04 -0.02 0 -0.06 l1.22 -0.96 q0.04 -0.04 0.08 0 t-0.02 0.08 l-1.22 0.96 l-0.02 0 z M3.64 14.76 q-0.02 0 -0.06 -0.04 q0 -0.06 0.04 -0.06 l0.8 -0.34 q0.06 0 0.08 0.04 q0 0.02 -0.04 0.06 l-0.8 0.34 l-0.02 0 z M4.24 16.36 q-0.04 0 -0.06 -0.02 l-0.6 -1.62 q0 -0.06 0.04 -0.06 q0.02 -0.02 0.06 0.02 l0.6 1.62 q0.06 0.06 -0.02 0.06 l-0.02 0 z M4.24 16.36 l-0.02 0 q-0.04 0 -0.04 -0.06 l0.22 -1.94 q0 -0.04 0.06 -0.04 q0.04 0 0.04 0.06 l-0.22 1.94 q0 0.04 -0.04 0.04 z M3.64 14.76 q-0.06 0 -0.06 -0.04 l-0.22 -1.42 q0 -0.06 0.04 -0.06 q0.06 0 0.06 0.04 l0.22 1.42 q0 0.06 -0.04 0.06 z M3.64 14.76 l-0.02 0 l-1.36 -0.32 q-0.04 -0.04 -0.02 -0.06 q0 -0.06 0.06 -0.04 l1.34 0.32 q0.04 0 0.04 0.06 q0 0.04 -0.04 0.04 z M3.64 14.76 l-0.04 -0.02 l-1.42 -1.9 q0 -0.06 0.02 -0.08 q0.06 -0.06 0.06 0.02 l1.42 1.9 q0 0.04 -0.02 0.06 z M2.26 15.879999999999999 q-0.04 0 -0.04 -0.02 q-0.04 -0.02 0 -0.06 l1.38 -1.14 q0.02 -0.02 0.08 0.02 q0 0.04 -0.02 0.06 l-1.38 1.14 l-0.02 0 z M4.24 16.36 l-0.02 0 l-1.98 -0.48 q-0.04 0 -0.04 -0.06 q0.04 -0.04 0.06 -0.04 l1.98 0.48 q0.04 0.02 0.04 0.06 t-0.04 0.04 z M3.7 17.64 l-0.02 0 l-1.54 -0.28 q-0.04 -0.04 -0.04 -0.06 q0 -0.1 0.06 -0.04 l1.54 0.28 q0.04 0 0.04 0.06 q0 0.04 -0.04 0.04 z M3.7 17.64 l-0.04 -0.02 l-1.44 -1.76 q-0.04 -0.02 0 -0.06 t0.08 0 l1.42 1.76 q0.02 0.04 0 0.06 z M3.7 17.64 q-0.02 0 -0.06 -0.04 q0 -0.06 0.04 -0.06 l1.76 -0.62 q0.06 0 0.06 0.04 q0.02 0.02 -0.02 0.06 z M3.7 17.64 q-0.02 0 -0.02 -0.02 q-0.04 0 -0.04 -0.06 l0.54 -1.26 q0.02 -0.04 0.08 -0.04 q0.04 0.04 0.02 0.08 l-0.54 1.26 z M2.14 18.92 q-0.02 0 -0.04 -0.02 q-0.04 -0.04 0.02 -0.06 l1.54 -1.3 q0.06 -0.06 0.06 0.02 q0.02 0.04 0 0.06 l-1.54 1.3 l-0.04 0 z M4.02 20.06 q-0.02 0 -0.02 -0.02 l-1.88 -1.12 q-0.06 -0.04 -0.02 -0.08 q0.02 -0.02 0.06 -0.02 l1.88 1.14 q0.06 0.02 0.02 0.06 q0 0.04 -0.04 0.04 z M4.02 20.06 l-1.86 0 q-0.06 0 -0.06 -0.06 q0 -0.04 0.06 -0.04 l1.86 0 q0.06 0 0.06 0.04 q0 0.06 -0.06 0.06 z M4.84 18.16 l-0.02 0 l-1.16 -0.54 q-0.02 0 -0.02 -0.06 q0.04 -0.04 0.08 -0.02 l1.14 0.52 q0.04 0.04 0.02 0.08 q0 0.02 -0.04 0.02 z M2.14 18.92 q-0.04 0 -0.04 -0.04 q-0.02 -0.02 0.02 -0.06 l2.7 -0.76 q0.06 0 0.06 0.04 q0.06 0.06 -0.04 0.06 l-2.68 0.76 l-0.02 0 z M4.02 20.06 q-0.02 0 -0.02 -0.02 q-0.04 -0.04 -0.02 -0.06 l0.58 -0.8 q0.02 -0.02 0.06 0 q0.04 0.04 0.02 0.06 l-0.58 0.8 q-0.02 0.02 -0.04 0.02 z M4.6 19.26 l-0.02 0 l-2.44 -0.34 q-0.08 0 -0.04 -0.06 q0 -0.04 0.04 -0.04 l2.46 0.34 q0.04 0.04 0.04 0.06 q0 0.04 -0.04 0.04 z M4.6 19.26 l-0.02 0 q-0.04 0 -0.04 -0.06 l0.24 -1.1 q0.04 -0.04 0.06 -0.04 q0.04 0.02 0.04 0.06 l-0.24 1.1 q0 0.04 -0.04 0.04 z M4.84 18.16 l-0.02 0 q-0.04 -0.02 -0.02 -0.08 l0.62 -1.14 q0 -0.02 0.06 -0.02 q0.04 0.04 0.02 0.08 l-0.62 1.14 q0 0.02 -0.04 0.02 z M5.46 17.02 q-0.06 0 -0.06 -0.04 q0 -0.06 0.04 -0.06 l1.26 -0.18 q0.04 0 0.04 0.06 q0.04 0.04 -0.04 0.04 z M8.12 17.1 l-1.42 -0.26 q-0.08 0 -0.04 -0.04 q0 -0.08 0.04 -0.04 l1.44 0.24 q0.04 0 0.04 0.06 q-0.04 0.04 -0.06 0.04 z M8.12 17.1 q-0.04 0 -0.04 -0.06 q0 -0.04 0.04 -0.04 l1.62 -0.1 q0.04 0 0.04 0.04 q0.02 0.06 -0.04 0.06 z M10.9 17.1 l-1.16 -0.1 q-0.06 0 -0.06 -0.06 q0.04 -0.04 0.06 -0.04 l1.16 0.1 q0.04 0 0.04 0.06 q0 0.04 -0.04 0.04 z M10.78 18.54 l-0.02 0 q-0.04 0 -0.04 -0.04 l0.12 -1.46 q0 -0.04 0.06 -0.04 q0.04 0 0.04 0.06 l-0.12 1.44 q0 0.04 -0.04 0.04 z M10.76 20.06 q-0.04 0 -0.04 -0.06 l0 -1.5 q0 -0.06 0.06 -0.06 q0.04 0 0.04 0.06 l0 1.5 q0 0.06 -0.06 0.06 z M4.02 20.06 q-0.04 0 -0.04 -0.06 q0 -0.04 0.04 -0.04 l2.08 -0.06 q0.06 0 0.06 0.04 q0 0.06 -0.06 0.06 z M7.98 20.12 l-1.88 -0.12 q-0.04 0 -0.04 -0.06 q0 -0.04 0.04 -0.04 l1.88 0.12 q0.06 0 0.06 0.04 q0 0.06 -0.06 0.06 z M7.98 20.12 q-0.04 0 -0.04 -0.06 q0 -0.04 0.04 -0.04 l1.84 -0.12 q0.06 0 0.06 0.04 q0 0.06 -0.04 0.06 z M10.76 20.06 l-0.94 -0.06 q-0.04 0 -0.04 -0.06 q0 -0.04 0.06 -0.04 l0.94 0.06 q0.04 0 0.04 0.04 q0 0.06 -0.06 0.06 z M9.84 20 q-0.02 0 -0.04 -0.02 q-0.02 0 -0.02 -0.06 l0.94 -1.44 q0.04 -0.06 0.08 -0.02 q0.02 0.02 0.02 0.06 l-0.94 1.46 z M7.98 20.12 q-0.02 0 -0.02 -0.02 q-0.04 -0.04 -0.02 -0.06 l0.96 -1.32 q0.02 -0.02 0.08 -0.02 q0.04 0.04 0 0.08 l-0.96 1.32 q-0.02 0.02 -0.04 0.02 z M9.84 20 l-0.04 -0.02 l-0.9 -1.2 q-0.04 -0.02 0.02 -0.08 q0.04 0 0.06 0.02 l0.9 1.2 q0 0.04 -0.02 0.06 z M8.94 18.8 q-0.04 0 -0.04 -0.04 q0 -0.06 0.04 -0.06 l1.82 -0.24 q0.06 -0.02 0.06 0.04 q0 0.04 -0.04 0.04 l-1.82 0.26 l-0.02 0 z M10.78 18.54 q-0.04 0 -0.06 -0.02 l-1.02 -1.54 q-0.04 -0.04 0.02 -0.08 q0.04 0 0.06 0.02 l1.04 1.56 q0 0.04 -0.02 0.06 l-0.02 0 z M8.32 17.740000000000002 l-0.04 -0.02 q-0.02 -0.06 0.02 -0.08 l1.42 -0.74 q0.06 0 0.06 0.02 q0.02 0.04 -0.02 0.08 l-1.42 0.74 l-0.02 0 z M10.78 18.54 l-0.02 0 l-2.46 -0.8 q-0.04 -0.04 -0.04 -0.06 q0.02 -0.04 0.08 -0.04 l2.44 0.82 q0.04 0 0.04 0.06 q0 0.02 -0.04 0.02 z M8.94 18.8 q-0.02 0 -0.02 -0.01 t-0.02 -0.01 l-0.62 -1.06 q-0.02 -0.06 0.02 -0.08 q0.02 -0.02 0.06 0.02 l0.62 1.06 q0.04 0.04 0 0.08 l-0.04 0 z M8.32 17.740000000000002 q-0.02 0 -0.06 -0.04 l-0.18 -0.64 q-0.06 -0.06 0.02 -0.06 q0.06 0 0.06 0.04 l0.2 0.64 q0.02 0.02 -0.02 0.06 l-0.02 0 z M7.98 20.12 q-0.02 0 -0.02 -0.01 t-0.02 -0.01 l-1.08 -1.44 q0 -0.06 0.02 -0.08 q0.06 -0.06 0.06 0.02 l1.08 1.44 q0.02 0.04 0 0.06 t-0.04 0.02 z M8.94 18.8 l-2.04 -0.12 q-0.04 0 -0.04 -0.06 q0 -0.04 0.06 -0.04 l2.02 0.12 q0.06 0 0.06 0.06 q0 0.04 -0.06 0.04 z M6.9 18.68 q-0.02 -0.02 -0.04 -0.02 q0 -0.06 0.02 -0.08 l1.4 -0.94 q0.06 0 0.08 0.02 q0.06 0.06 -0.02 0.06 l-1.4 0.94 q-0.02 0.02 -0.04 0.02 z M6.9 18.68 q-0.02 0 -0.02 -0.02 q-0.04 -0.02 0 -0.06 l1.2 -1.58 q0.04 -0.04 0.08 -0.02 q0.04 0.04 0 0.08 l-1.22 1.58 q-0.02 0.02 -0.04 0.02 z M6.9 18.68 q-0.04 0 -0.04 -0.04 l-0.2 -1.84 q-0.02 -0.02 0.04 -0.06 q0.04 0 0.04 0.06 l0.22 1.82 q0 0.06 -0.04 0.06 l-0.02 0 z M6.9 18.68 l-0.02 -0.02 l-1.46 -1.66 q-0.04 -0.02 0 -0.06 t0.08 0 l1.44 1.66 q0.02 0.04 0 0.06 q0 0.02 -0.04 0.02 z M6.9 18.68 l-2.08 -0.52 q-0.04 0 -0.04 -0.06 q0.04 -0.04 0.06 -0.04 l2.08 0.52 q0.04 0 0.04 0.06 q0 0.04 -0.06 0.04 z M5.82 20 q-0.04 0 -0.04 -0.04 l-0.98 -1.82 q-0.04 -0.04 0.02 -0.08 q0.04 0 0.06 0.02 l0.98 1.84 q0.06 0.06 -0.02 0.06 q0 0.02 -0.02 0.02 z M6.58 19.42 l-0.02 0 q-0.02 0 -0.02 -0.06 l0.32 -0.76 q0.04 -0.04 0.06 -0.02 q0.04 0 0.04 0.06 l-0.32 0.76 q-0.02 0.02 -0.06 0.02 z M6.58 19.42 l-0.02 0 l-1.76 -1.26 q-0.04 -0.04 0 -0.08 q0.02 -0.02 0.06 0 l1.76 1.26 q0.02 0.04 0 0.06 q0 0.02 -0.04 0.02 z M5.82 20 q-0.02 0 -0.02 -0.01 t-0.02 -0.01 q-0.04 -0.02 0.02 -0.08 l0.76 -0.56 q0.06 -0.06 0.06 0 q0.04 0.04 0 0.08 l-0.76 0.56 q-0.02 0.02 -0.04 0.02 z M7.98 20.12 q-0.02 0 -0.02 -0.02 l-1.4 -0.68 q-0.02 -0.02 -0.02 -0.06 q0.02 -0.04 0.08 -0.02 l1.38 0.68 q0.06 0.02 0.02 0.06 q0 0.04 -0.04 0.04 z"></path></g><g id="SvgjsG1327" featurekey="text1" fill="#023458" transform="matrix(3.0997885748009857,0,0,3.0997885748009857,169.54004100624405,33.37864493634163)"><path d="M4.6 4.880000000000001 l-2.46 -0.14 q-0.04 0 -0.04 -0.06 q0 -0.04 0.06 -0.04 l2.44 0.14 q0.04 0 0.04 0.06 q0 0.04 -0.04 0.04 z M4.6 4.880000000000001 q-0.06 0 -0.06 -0.04 q0 -0.06 0.06 -0.06 l2.16 -0.14 q0.04 0 0.04 0.04 q0 0.06 -0.04 0.06 z M9.22 4.800000000000001 l-2.46 -0.06 q-0.06 -0.02 -0.06 -0.06 t0.06 -0.04 l2.46 0.06 q0.04 0 0.04 0.06 q0 0.04 -0.04 0.04 z M9.22 4.800000000000001 q-0.06 0 -0.06 -0.04 q0 -0.06 0.06 -0.06 l1.56 -0.06 q0.04 0 0.04 0.04 q0 0.06 -0.04 0.06 z M2.28 6.859999999999999 q-0.04 0 -0.04 -0.04 l-0.14 -2.14 q0 -0.04 0.04 -0.04 q0.06 0 0.06 0.04 l0.14 2.12 q0 0.06 -0.06 0.06 z M2.22 8.98 q-0.04 0 -0.04 -0.06 l0.06 -2.12 q0 -0.04 0.04 -0.04 q0.06 0 0.06 0.06 l-0.06 2.1 q0 0.06 -0.06 0.06 z M2.22 11.9 q-0.04 0 -0.04 -0.06 l0 -2.92 q0 -0.04 0.04 -0.04 q0.06 0 0.06 0.04 l0 2.92 q0 0.06 -0.06 0.06 z M2.28 14.719999999999999 q-0.04 0 -0.04 -0.04 l-0.06 -2.84 q0 -0.04 0.04 -0.04 q0.06 -0.02 0.06 0.04 l0.06 2.84 q0 0.04 -0.06 0.04 z M2.16 17.36 l-0.02 0 q-0.04 0 -0.04 -0.06 l0.14 -2.62 q0 -0.06 0.04 -0.06 q0.06 0 0.06 0.06 l-0.14 2.62 q0 0.06 -0.04 0.06 z M2.14 18.92 q-0.04 0 -0.04 -0.04 l0 -1.58 q0 -0.04 0.06 -0.04 q0.04 0 0.04 0.04 l0 1.58 q0 0.04 -0.06 0.04 z M2.16 20.06 q-0.06 0 -0.06 -0.06 l0 -1.12 q0 -0.06 0.04 -0.06 q0.06 0 0.06 0.06 l0 1.12 q0 0.06 -0.04 0.06 z M2.22 5.960000000000001 q-0.04 0 -0.04 -0.04 t0.02 -0.06 l2.38 -1.08 q0.04 0 0.06 0.02 q0.02 0.04 -0.02 0.08 l-2.38 1.08 l-0.02 0 z M3.76 7.1 q-0.02 0 -0.04 -0.02 l-1.52 -1.14 q-0.02 -0.02 -0.02 -0.06 q0.04 -0.04 0.08 -0.02 l1.52 1.14 q0.04 0.06 0.02 0.08 z M3.76 7.1 q-0.02 0 -0.06 -0.04 q0 -0.04 0.04 -0.06 l1.08 -0.56 q0.04 -0.04 0.06 0.02 q0.02 0.02 -0.02 0.06 l-1.08 0.56 z M4.84 6.52 l-0.02 0 l-2.6 -0.56 q-0.04 -0.02 -0.04 -0.06 q0 -0.1 0.06 -0.04 l2.6 0.56 q0.04 0.02 0.04 0.06 t-0.04 0.04 z M4.84 6.52 q-0.06 0 -0.06 -0.04 l-0.24 -1.64 q0 -0.06 0.04 -0.06 q0.06 0 0.06 0.04 l0.24 1.64 q0 0.06 -0.04 0.06 z M4.84 6.52 q-0.04 0 -0.04 -0.02 q-0.04 -0.02 0 -0.06 l0.98 -0.82 q0.04 -0.04 0.08 0 q0.06 0.06 -0.02 0.06 l-0.98 0.84 l-0.02 0 z M5.82 5.699999999999999 l-0.04 0 l-1.22 -0.84 q-0.06 0 0 -0.06 q0 -0.02 0.06 -0.02 l1.22 0.84 q0.08 0 0.02 0.06 q-0.02 0.02 -0.04 0.02 z M5.82 5.699999999999999 l-0.04 0 q-0.04 -0.04 0 -0.08 l0.68 -0.96 q0.04 -0.04 0.08 -0.02 q0.02 0.02 0 0.08 l-0.68 0.96 q-0.02 0.02 -0.04 0.02 z M7.36 5.699999999999999 q-0.02 0 -0.04 -0.02 l-0.86 -0.96 q-0.04 -0.02 0.02 -0.08 q0.02 -0.02 0.06 0 l0.86 0.98 q0.06 0.06 0 0.06 z M5.82 5.699999999999999 q-0.06 0 -0.06 -0.04 q0 -0.06 0.06 -0.06 l1.54 0 q0.04 0 0.04 0.06 q0 0.04 -0.04 0.04 l-1.54 0 z M6.46 6.859999999999999 q-0.02 0 -0.02 -0.02 q-0.08 0 -0.02 -0.06 l0.9 -1.16 q0.02 -0.02 0.06 0 q0.08 0 0.02 0.06 l-0.9 1.16 q0 0.02 -0.04 0.02 z M6.46 6.859999999999999 q-0.02 0 -0.02 -0.01 t-0.02 -0.01 l-0.64 -1.16 q-0.04 -0.04 0.02 -0.08 q0.04 0 0.06 0.02 l0.64 1.16 q0.04 0.04 -0.02 0.08 l-0.02 0 z M6.46 6.859999999999999 l-1.64 -0.34 q-0.04 0 -0.04 -0.06 q0.04 -0.04 0.06 -0.04 l1.64 0.34 q0.04 0 0.04 0.06 q-0.04 0.04 -0.06 0.04 z M5.46 7.76 q-0.02 0 -0.04 -0.02 q-0.04 -0.02 0 -0.06 l1.02 -0.9 q0.02 -0.02 0.06 0 q0.02 0.04 0 0.06 l-1 0.9 q-0.02 0.02 -0.04 0.02 z M5.46 7.76 q-0.06 0 -0.06 -0.04 q0 -0.06 0.06 -0.06 l1.9 0 q0.04 0 0.04 0.06 q0 0.04 -0.04 0.04 l-1.9 0 z M7.36 7.76 q-0.02 0 -0.04 -0.02 l-0.9 -0.9 q-0.04 -0.02 0 -0.06 t0.08 0 l0.9 0.9 q0.02 0.04 0 0.06 t-0.04 0.02 z M5.46 7.76 q-0.04 0 -0.04 -0.02 l-0.62 -1.24 q-0.06 -0.06 0.02 -0.06 q0.04 -0.04 0.06 0.02 l0.62 1.22 q0.02 0.04 -0.02 0.08 l-0.02 0 z M5.46 7.76 l-0.02 0 l-1.7 -0.66 q-0.04 -0.02 -0.04 -0.08 q0.04 -0.04 0.08 -0.02 l1.7 0.66 q0.04 0.04 0.02 0.06 q0 0.04 -0.04 0.04 z M3.76 7.1 l-0.02 0 l-1.46 -0.24 q-0.04 0 -0.04 -0.06 q0 -0.04 0.06 -0.04 l1.46 0.24 q0.04 0 0.04 0.06 q0 0.04 -0.04 0.04 z M3.74 8.36 q-0.04 0 -0.04 -0.06 l0 -1.24 q0 -0.06 0.06 -0.06 q0.04 0 0.04 0.04 l0 1.26 q0 0.06 -0.06 0.06 z M2.22 8.98 q-0.04 0 -0.04 -0.04 q0 -0.06 0.02 -0.06 l1.54 -0.62 q0.02 -0.02 0.06 0.02 q0 0.06 -0.04 0.06 l-1.52 0.62 q0 0.02 -0.02 0.02 z M3.74 8.36 l-0.02 -0.02 l-1.48 -1.5 q0 -0.04 0.02 -0.06 q0 -0.06 0.06 0 l1.46 1.48 q0.04 0.04 0 0.08 q-0.02 0.02 -0.04 0.02 z M3.74 8.36 q-0.04 0 -0.04 -0.04 q0 -0.06 0.04 -0.06 l1.7 -0.6 q0.06 0 0.06 0.04 q0.06 0.06 -0.02 0.06 l-1.72 0.58 q0 0.02 -0.02 0.02 z M8.46 6.52 l-0.02 0 l-1.12 -0.82 q-0.04 -0.04 0 -0.08 q0.02 -0.02 0.06 0 l1.12 0.82 q0.02 0.04 0 0.06 q0 0.02 -0.04 0.02 z M6.46 6.859999999999999 q-0.04 0 -0.04 -0.04 q0 -0.06 0.04 -0.06 l2 -0.34 q0.02 0 0.06 0.04 q0 0.06 -0.04 0.06 l-2 0.34 l-0.02 0 z M7.36 7.76 q-0.02 0 -0.04 -0.02 q-0.04 -0.02 0 -0.06 l1.1 -1.24 q0.04 -0.04 0.08 0 q0.02 0.04 0 0.06 l-1.1 1.24 q-0.02 0.02 -0.04 0.02 z M8.46 6.52 l-0.02 0 q-0.08 0 -0.02 -0.06 l0.42 -1.12 q0 -0.08 0.06 -0.02 q0.04 0 0.04 0.06 l-0.42 1.12 q-0.02 0.02 -0.06 0.02 z M7.36 5.699999999999999 q-0.02 0 -0.06 -0.04 q0 -0.06 0.04 -0.06 l1.54 -0.28 q0.02 0 0.06 0.04 q0 0.06 -0.04 0.06 z M8.88 5.42 l-2.38 -0.68 q-0.06 -0.04 -0.04 -0.08 q0 -0.08 0.06 -0.02 l2.38 0.68 q0.04 0 0.04 0.06 q-0.04 0.04 -0.06 0.04 z M8.88 5.42 l-0.02 0 q-0.06 -0.04 -0.02 -0.08 l0.34 -0.6 q0 -0.08 0.06 -0.02 q0.08 0 0.02 0.06 l-0.34 0.62 q-0.02 0.02 -0.04 0.02 z M10.78 7.1 l-0.04 -0.02 l-1.88 -1.68 q-0.04 -0.04 -0.02 -0.06 t0.08 -0.02 l1.88 1.68 q0.04 0.04 0 0.08 z M10.78 7.1 q-0.06 0 -0.06 -0.06 l0 -2.36 q0 -0.04 0.04 -0.04 q0.06 0 0.06 0.04 l0 2.36 q0 0.06 -0.04 0.06 z M10.78 7.1 q-0.02 0 -0.06 -0.04 l-1.54 -2.28 q-0.06 -0.06 0 -0.06 q0.04 -0.04 0.08 0 l1.56 2.3 q0 0.04 -0.02 0.06 z M9.42 7.779999999999999 q-0.02 0 -0.04 -0.02 l-0.96 -1.26 q-0.02 -0.02 0.02 -0.06 q0.02 -0.02 0.06 0 l0.96 1.26 q0.04 0.04 0 0.08 l-0.04 0 z M9.42 7.779999999999999 q-0.04 0 -0.04 -0.02 q-0.02 -0.04 0.02 -0.08 l1.34 -0.68 q0.04 -0.02 0.08 0.02 q0 0.06 -0.02 0.06 l-1.36 0.7 l-0.02 0 z M9.42 7.779999999999999 q-0.04 0 -0.04 -0.04 l-0.54 -2.36 q0 -0.06 0.04 -0.06 t0.06 0.04 l0.54 2.36 q0 0.06 -0.04 0.06 l-0.02 0 z M10.9 7.92 l-1.48 -0.14 q-0.04 0 -0.04 -0.06 q0 -0.04 0.04 -0.04 l1.48 0.14 q0.04 0 0.04 0.06 q0 0.04 -0.04 0.04 z M10.9 7.92 q-0.06 0 -0.06 -0.04 l-0.12 -0.84 q0 -0.04 0.04 -0.04 q0.06 -0.02 0.06 0.04 l0.12 0.82 q0 0.06 -0.04 0.06 z M9.42 7.779999999999999 l-2.06 -0.02 q-0.06 0 -0.06 -0.04 q0 -0.06 0.06 -0.06 l2.06 0.02 q0.06 0 0.06 0.06 q0 0.04 -0.06 0.04 z M3.8 10.42 q-0.02 0 -0.06 -0.04 l-0.04 -2.08 q0 -0.04 0.04 -0.04 q0.06 0 0.06 0.04 l0.04 2.06 q0.02 0.06 -0.04 0.06 z M3.8 10.42 q-0.02 0 -0.04 -0.02 l-1.56 -1.44 q-0.04 -0.04 0 -0.08 q0 -0.06 0.06 0 l1.58 1.46 q0.02 0.04 0 0.06 t-0.04 0.02 z M4.32 9.18 q-0.02 0 -0.04 -0.02 l-0.58 -0.82 q0 -0.06 0.02 -0.08 t0.08 0.02 l0.56 0.82 q0.04 0.04 0 0.08 l-0.04 0 z M3.8 10.42 l-0.02 0 q-0.04 -0.04 -0.02 -0.06 l0.52 -1.24 q0 -0.04 0.06 -0.04 q0.04 0.02 0.04 0.08 l-0.54 1.24 q-0.02 0.02 -0.04 0.02 z M4.32 9.18 l-0.02 0 q-0.06 -0.04 -0.02 -0.08 l1.14 -1.42 q0.02 -0.02 0.06 0 q0.08 0 0.02 0.06 l-1.14 1.42 q0 0.02 -0.04 0.02 z M5.46 9.3 l-0.02 0 l-1.12 -0.12 q-0.04 0 -0.04 -0.06 q0 -0.04 0.06 -0.04 l1.12 0.12 q0.04 0 0.04 0.06 q0 0.04 -0.04 0.04 z M5.46 9.3 q-0.06 0 -0.06 -0.04 l0 -1.54 q0 -0.06 0.06 -0.06 q0.04 0 0.04 0.06 l0 1.54 q0 0.04 -0.04 0.04 z M5.44 10.86 q-0.04 -0.04 -0.04 -0.06 l0 -1.54 q0 -0.06 0.06 -0.06 q0.04 0 0.04 0.06 l0 1.54 q0 0.06 -0.06 0.06 z M5.44 10.86 l-0.04 -0.04 l-1.12 -1.66 q-0.06 -0.06 0.02 -0.06 q0.06 -0.06 0.06 0 l1.14 1.68 q0 0.04 -0.02 0.06 q-0.02 0 -0.02 0.01 t-0.02 0.01 z M5.44 10.86 l0 -0.02 l-1.66 -0.42 q-0.08 0 -0.02 -0.06 q0 -0.04 0.06 -0.04 l1.64 0.44 q0.04 0 0.04 0.06 q0 0.04 -0.06 0.04 z M5.44 10.86 q-0.04 0 -0.04 -0.06 q0 -0.04 0.04 -0.04 l1.46 -0.08 q0.06 0 0.06 0.04 q0 0.06 -0.04 0.06 l-1.46 0.08 l-0.02 0 z M8.4 10.94 l-0.02 0 l-1.48 -0.16 q-0.04 0 -0.04 -0.06 q0 -0.04 0.06 -0.04 l1.48 0.16 q0.04 0 0.04 0.06 q0 0.04 -0.04 0.04 z M8.4 10.94 q-0.06 0 -0.06 -0.04 q0 -0.06 0.04 -0.06 l1.3 -0.16 q0.06 0 0.06 0.04 q0 0.06 -0.04 0.06 z M10.78 10.86 l-0.02 0 l-1.06 -0.08 q-0.06 0 -0.06 -0.06 q0 -0.04 0.06 -0.04 l1.08 0.08 q0.04 0 0.04 0.04 q0 0.06 -0.04 0.06 z M10.78 12.36 q-0.06 0 -0.06 -0.04 l0 -1.52 q0 -0.04 0.06 -0.04 q0.04 0 0.04 0.04 l0 1.52 q0 0.04 -0.04 0.04 z M10.78 13.84 q-0.06 0 -0.06 -0.04 l0 -1.48 q0 -0.06 0.06 -0.06 q0.04 0 0.04 0.06 l0 1.48 q0 0.04 -0.04 0.04 z M4.02 11.9 l-0.02 0 l-1.76 -0.62 q-0.04 0 -0.04 -0.06 q0.04 -0.04 0.08 -0.02 l1.76 0.6 q0.08 0 0.02 0.06 q0 0.04 -0.04 0.04 z M4.02 11.9 q-0.04 0 -0.04 -0.04 l-0.22 -1.48 q-0.06 -0.06 0.04 -0.06 q0.04 0 0.04 0.04 l0.24 1.48 q0 0.04 -0.06 0.06 z M3.14 10.94 q-0.04 0 -0.04 -0.02 l-0.92 -1.98 q0 -0.06 0.02 -0.06 q0.04 -0.02 0.08 0.02 l0.9 1.98 q0.02 0.02 -0.02 0.06 l-0.02 0 z M2.26 11.28 q-0.04 0 -0.04 -0.02 q-0.06 -0.06 0.02 -0.06 l0.88 -0.36 q0.06 0 0.06 0.04 q0.02 0.02 -0.02 0.06 l-0.88 0.34 l-0.02 0 z M3.14 10.94 q-0.02 0 -0.04 -0.02 q-0.06 -0.06 0 -0.06 l0.66 -0.52 q0.06 -0.02 0.08 0 q0.04 0.04 0 0.08 l-0.66 0.52 l-0.04 0 z M4.02 11.9 q-0.02 0 -0.02 -0.01 t-0.02 -0.01 q-0.04 -0.02 0.02 -0.08 l1.42 -1.04 q0.06 -0.06 0.06 0.02 q0.02 0.04 0 0.06 l-1.42 1.04 q-0.02 0.02 -0.04 0.02 z M3.42 13.34 l-0.02 0 q-0.04 -0.02 -0.04 -0.06 l0.62 -1.46 q0 -0.08 0.06 -0.02 q0.08 0 0.02 0.06 l-0.6 1.46 q0 0.02 -0.04 0.02 z M3.42 13.34 l-0.02 0 l-1.2 -0.5 q-0.02 0 -0.02 -0.06 q0.04 -0.04 0.06 -0.02 l1.2 0.48 q0.02 0.02 0.02 0.08 q0 0.02 -0.04 0.02 z M3.42 13.34 q-0.04 0 -0.06 -0.02 l-1.14 -2.06 q-0.06 -0.06 0.02 -0.06 q0.04 -0.04 0.06 0.02 l1.16 2.04 q0 0.06 -0.02 0.08 l-0.02 0 z M6.22 12.16 q-0.02 0 -0.03 -0.01 t-0.03 -0.01 l-0.76 -1.32 q0 -0.04 0.02 -0.06 t0.08 0.02 l0.76 1.3 q0.02 0.04 -0.02 0.08 l-0.02 0 z M6.22 12.16 l-0.02 0 q-0.04 -0.02 -0.04 -0.08 l0.7 -1.38 q0.02 -0.02 0.08 -0.02 q0.02 0.02 0.02 0.08 l-0.7 1.38 q-0.02 0 -0.02 0.01 t-0.02 0.01 z M7.68 12.64 l-0.02 0 l-1.46 -0.48 q-0.04 -0.04 -0.04 -0.06 q0.02 -0.04 0.06 -0.04 l1.48 0.48 q0.04 0.04 0.02 0.06 q0 0.04 -0.04 0.04 z M7.68 12.64 l-0.02 0 q-0.04 -0.04 -0.02 -0.08 l0.7 -1.68 q0.02 -0.04 0.08 -0.04 q0.02 0.02 0.02 0.08 l-0.72 1.68 q0 0.04 -0.04 0.04 z M7.68 12.64 q-0.04 0 -0.04 -0.04 l-0.78 -1.86 q0 -0.04 0.04 -0.06 q0.04 0 0.06 0.02 l0.76 1.86 q0.02 0.04 -0.02 0.08 l-0.02 0 z M7.68 12.64 q-0.02 0 -0.04 -0.02 q-0.04 -0.02 0 -0.06 l2.02 -1.86 q0.04 -0.04 0.08 0 q0.02 0.02 -0.02 0.06 l-2 1.86 q-0.02 0.02 -0.04 0.02 z M10.78 12.36 q-0.04 0 -0.06 -0.02 l-1.06 -1.58 q-0.04 -0.04 0 -0.08 q0.06 0 0.08 0.02 l1.08 1.58 q0 0.06 -0.02 0.08 l-0.02 0 z M9.58 12.86 q-0.02 0 -0.06 -0.04 q0 -0.02 0.04 -0.06 l1.2 -0.5 q0.04 0 0.06 0.04 q0 0.04 -0.04 0.06 l-1.18 0.5 l-0.02 0 z M9.58 12.86 q-0.06 0 -0.06 -0.06 l0.12 -2.08 q0 -0.04 0.06 -0.04 q0.04 0 0.04 0.06 l-0.12 2.08 q0 0.04 -0.04 0.04 z M10.78 13.84 l-0.04 0 l-1.2 -1 q-0.04 -0.02 0 -0.06 q0.02 -0.02 0.06 -0.02 l1.2 1 q0.04 0.04 0.02 0.06 t-0.04 0.02 z M10.78 13.84 l-0.02 0 l-2.08 -0.54 q-0.06 0 -0.02 -0.06 q0 -0.04 0.06 -0.04 l2.06 0.54 q0.06 0.04 0.04 0.06 q0 0.04 -0.04 0.04 z M8.7 13.3 q-0.04 0 -0.04 -0.02 q-0.06 -0.06 0.02 -0.06 l0.88 -0.46 q0.04 0 0.06 0.02 q0.02 0.04 -0.02 0.08 l-0.88 0.44 l-0.02 0 z M10.78 13.84 l-3.06 0 q-0.06 0 -0.06 -0.04 q0 -0.06 0.06 -0.06 l3.06 0 q0.04 0 0.04 0.06 q0 0.04 -0.04 0.04 z M7.72 13.84 q-0.04 0 -0.04 -0.02 q-0.04 -0.02 0.02 -0.08 l1.2 -0.64 q0.04 0 0.06 0.02 q0.02 0.04 -0.02 0.08 l-1.2 0.64 l-0.02 0 z M8.7 13.3 l-0.02 0 q-0.08 0 -0.02 -0.06 l0.98 -2.52 q0.02 -0.04 0.08 -0.04 q0.04 0.04 0.02 0.06 l-1 2.54 q0 0.02 -0.04 0.02 z M8.7 13.3 l-0.02 0 l-1.02 -0.66 q-0.06 -0.04 -0.02 -0.08 q0.02 -0.02 0.06 -0.02 l1.02 0.68 q0.06 0.02 0.02 0.06 q0 0.02 -0.04 0.02 z M7.72 13.84 q-0.06 0 -0.06 -0.04 l-0.02 -1.2 q-0.04 -0.06 0.04 -0.06 q0.02 0 0.06 0.04 l0.02 1.2 q0 0.06 -0.04 0.06 z M6.22 12.16 l-0.02 0 l-2.18 -0.26 q-0.1 0 -0.04 -0.06 q0 -0.04 0.04 -0.04 l2.2 0.26 q0.04 0 0.04 0.06 q0 0.04 -0.04 0.04 z M7.72 13.84 q-0.02 0 -0.04 -0.02 l-1.5 -1.68 q-0.06 -0.06 0 -0.06 q0.04 -0.04 0.08 0 l1.5 1.68 q0.02 0.04 0 0.06 t-0.04 0.02 z M6.4 13.84 q-0.04 0 -0.04 -0.04 l-0.2 -1.68 q0 -0.06 0.04 -0.06 q0.06 0 0.06 0.04 l0.2 1.7 q0 0.04 -0.04 0.04 l-0.02 0 z M6.4 13.84 q-0.04 0 -0.04 -0.04 q0 -0.06 0.04 -0.06 l1.32 0 q0.04 0 0.04 0.06 q0 0.04 -0.04 0.04 l-1.32 0 z M6.4 13.84 l-1.08 -0.04 q-0.04 0 -0.04 -0.04 q0 -0.06 0.04 -0.06 l1.1 0.04 q0.04 0 0.04 0.06 q0 0.04 -0.06 0.04 z M5.32 13.8 l-0.02 0 q-0.04 -0.04 -0.02 -0.08 l0.88 -1.64 q0.02 -0.02 0.08 -0.02 q0.04 0.04 0.02 0.08 l-0.9 1.64 q0 0.02 -0.04 0.02 z M5.32 13.8 q-0.02 0 -0.04 -0.02 l-1.3 -1.9 q-0.02 -0.04 0.02 -0.08 q0.02 -0.02 0.06 0.02 l1.3 1.9 q0.04 0.04 0 0.08 l-0.04 0 z M4.44 14.42 q-0.02 0 -0.04 -0.02 l-1.02 -1.08 q-0.04 -0.02 0 -0.06 q0.02 -0.02 0.06 0 l1.04 1.08 q0.02 0.04 0 0.06 q0 0.02 -0.04 0.02 z M4.44 14.42 q-0.02 0 -0.04 -0.02 q-0.06 -0.06 0.02 -0.06 l0.88 -0.62 q0.02 -0.02 0.06 0 q0.04 0.04 0 0.08 l-0.88 0.62 l-0.04 0 z M4.44 14.42 q-0.04 0 -0.04 -0.04 l-0.42 -2.52 q-0.04 -0.06 0.04 -0.06 q0.04 0 0.06 0.04 l0.42 2.52 q0 0.06 -0.04 0.06 l-0.02 0 z M5.46 15.4 q-0.02 0 -0.04 -0.02 l-1 -0.98 q-0.02 -0.02 -0.02 -0.06 q0.04 -0.04 0.08 0 l1.02 0.98 q0.02 0.04 0 0.06 t-0.04 0.02 z M5.46 15.4 q-0.02 0 -0.06 -0.04 l-0.12 -1.6 q0 -0.06 0.04 -0.06 q0.06 0 0.06 0.04 l0.12 1.6 q0.02 0.06 -0.04 0.06 z M5.46 17.02 q-0.06 0 -0.06 -0.04 l0 -1.62 q0 -0.06 0.06 -0.06 q0.04 0 0.04 0.06 l0 1.6 q0 0.06 -0.04 0.06 z M5.46 17.02 l-0.02 0 l-1.24 -0.66 q-0.02 -0.02 -0.02 -0.08 q0.02 -0.02 0.08 -0.02 l1.22 0.66 q0.04 0.04 0.02 0.08 q0 0.02 -0.04 0.02 z M4.24 16.36 q-0.04 0 -0.04 -0.02 q-0.04 -0.02 0 -0.06 l1.22 -0.96 q0.04 -0.04 0.08 0 t-0.02 0.08 l-1.22 0.96 l-0.02 0 z M3.64 14.76 q-0.02 0 -0.06 -0.04 q0 -0.06 0.04 -0.06 l0.8 -0.34 q0.06 0 0.08 0.04 q0 0.02 -0.04 0.06 l-0.8 0.34 l-0.02 0 z M4.24 16.36 q-0.04 0 -0.06 -0.02 l-0.6 -1.62 q0 -0.06 0.04 -0.06 q0.02 -0.02 0.06 0.02 l0.6 1.62 q0.06 0.06 -0.02 0.06 l-0.02 0 z M4.24 16.36 l-0.02 0 q-0.04 0 -0.04 -0.06 l0.22 -1.94 q0 -0.04 0.06 -0.04 q0.04 0 0.04 0.06 l-0.22 1.94 q0 0.04 -0.04 0.04 z M3.64 14.76 q-0.06 0 -0.06 -0.04 l-0.22 -1.42 q0 -0.06 0.04 -0.06 q0.06 0 0.06 0.04 l0.22 1.42 q0 0.06 -0.04 0.06 z M3.64 14.76 l-0.02 0 l-1.36 -0.32 q-0.04 -0.04 -0.02 -0.06 q0 -0.06 0.06 -0.04 l1.34 0.32 q0.04 0 0.04 0.06 q0 0.04 -0.04 0.04 z M3.64 14.76 l-0.04 -0.02 l-1.42 -1.9 q0 -0.06 0.02 -0.08 q0.06 -0.06 0.06 0.02 l1.42 1.9 q0 0.04 -0.02 0.06 z M2.26 15.879999999999999 q-0.04 0 -0.04 -0.02 q-0.04 -0.02 0 -0.06 l1.38 -1.14 q0.02 -0.02 0.08 0.02 q0 0.04 -0.02 0.06 l-1.38 1.14 l-0.02 0 z M4.24 16.36 l-0.02 0 l-1.98 -0.48 q-0.04 0 -0.04 -0.06 q0.04 -0.04 0.06 -0.04 l1.98 0.48 q0.04 0.02 0.04 0.06 t-0.04 0.04 z M3.7 17.64 l-0.02 0 l-1.54 -0.28 q-0.04 -0.04 -0.04 -0.06 q0 -0.1 0.06 -0.04 l1.54 0.28 q0.04 0 0.04 0.06 q0 0.04 -0.04 0.04 z M3.7 17.64 l-0.04 -0.02 l-1.44 -1.76 q-0.04 -0.02 0 -0.06 t0.08 0 l1.42 1.76 q0.02 0.04 0 0.06 z M3.7 17.64 q-0.02 0 -0.06 -0.04 q0 -0.06 0.04 -0.06 l1.76 -0.62 q0.06 0 0.06 0.04 q0.02 0.02 -0.02 0.06 z M3.7 17.64 q-0.02 0 -0.02 -0.02 q-0.04 0 -0.04 -0.06 l0.54 -1.26 q0.02 -0.04 0.08 -0.04 q0.04 0.04 0.02 0.08 l-0.54 1.26 z M2.14 18.92 q-0.02 0 -0.04 -0.02 q-0.04 -0.04 0.02 -0.06 l1.54 -1.3 q0.06 -0.06 0.06 0.02 q0.02 0.04 0 0.06 l-1.54 1.3 l-0.04 0 z M4.02 20.06 q-0.02 0 -0.02 -0.02 l-1.88 -1.12 q-0.06 -0.04 -0.02 -0.08 q0.02 -0.02 0.06 -0.02 l1.88 1.14 q0.06 0.02 0.02 0.06 q0 0.04 -0.04 0.04 z M4.02 20.06 l-1.86 0 q-0.06 0 -0.06 -0.06 q0 -0.04 0.06 -0.04 l1.86 0 q0.06 0 0.06 0.04 q0 0.06 -0.06 0.06 z M4.84 18.16 l-0.02 0 l-1.16 -0.54 q-0.02 0 -0.02 -0.06 q0.04 -0.04 0.08 -0.02 l1.14 0.52 q0.04 0.04 0.02 0.08 q0 0.02 -0.04 0.02 z M2.14 18.92 q-0.04 0 -0.04 -0.04 q-0.02 -0.02 0.02 -0.06 l2.7 -0.76 q0.06 0 0.06 0.04 q0.06 0.06 -0.04 0.06 l-2.68 0.76 l-0.02 0 z M4.02 20.06 q-0.02 0 -0.02 -0.02 q-0.04 -0.04 -0.02 -0.06 l0.58 -0.8 q0.02 -0.02 0.06 0 q0.04 0.04 0.02 0.06 l-0.58 0.8 q-0.02 0.02 -0.04 0.02 z M4.6 19.26 l-0.02 0 l-2.44 -0.34 q-0.08 0 -0.04 -0.06 q0 -0.04 0.04 -0.04 l2.46 0.34 q0.04 0.04 0.04 0.06 q0 0.04 -0.04 0.04 z M4.6 19.26 l-0.02 0 q-0.04 0 -0.04 -0.06 l0.24 -1.1 q0.04 -0.04 0.06 -0.04 q0.04 0.02 0.04 0.06 l-0.24 1.1 q0 0.04 -0.04 0.04 z M4.84 18.16 l-0.02 0 q-0.04 -0.02 -0.02 -0.08 l0.62 -1.14 q0 -0.02 0.06 -0.02 q0.04 0.04 0.02 0.08 l-0.62 1.14 q0 0.02 -0.04 0.02 z M5.46 17.02 q-0.06 0 -0.06 -0.04 q0 -0.06 0.04 -0.06 l1.26 -0.18 q0.04 0 0.04 0.06 q0.04 0.04 -0.04 0.04 z M8.12 17.1 l-1.42 -0.26 q-0.08 0 -0.04 -0.04 q0 -0.08 0.04 -0.04 l1.44 0.24 q0.04 0 0.04 0.06 q-0.04 0.04 -0.06 0.04 z M8.12 17.1 q-0.04 0 -0.04 -0.06 q0 -0.04 0.04 -0.04 l1.62 -0.1 q0.04 0 0.04 0.04 q0.02 0.06 -0.04 0.06 z M10.9 17.1 l-1.16 -0.1 q-0.06 0 -0.06 -0.06 q0.04 -0.04 0.06 -0.04 l1.16 0.1 q0.04 0 0.04 0.06 q0 0.04 -0.04 0.04 z M10.78 18.54 l-0.02 0 q-0.04 0 -0.04 -0.04 l0.12 -1.46 q0 -0.04 0.06 -0.04 q0.04 0 0.04 0.06 l-0.12 1.44 q0 0.04 -0.04 0.04 z M10.76 20.06 q-0.04 0 -0.04 -0.06 l0 -1.5 q0 -0.06 0.06 -0.06 q0.04 0 0.04 0.06 l0 1.5 q0 0.06 -0.06 0.06 z M4.02 20.06 q-0.04 0 -0.04 -0.06 q0 -0.04 0.04 -0.04 l2.08 -0.06 q0.06 0 0.06 0.04 q0 0.06 -0.06 0.06 z M7.98 20.12 l-1.88 -0.12 q-0.04 0 -0.04 -0.06 q0 -0.04 0.04 -0.04 l1.88 0.12 q0.06 0 0.06 0.04 q0 0.06 -0.06 0.06 z M7.98 20.12 q-0.04 0 -0.04 -0.06 q0 -0.04 0.04 -0.04 l1.84 -0.12 q0.06 0 0.06 0.04 q0 0.06 -0.04 0.06 z M10.76 20.06 l-0.94 -0.06 q-0.04 0 -0.04 -0.06 q0 -0.04 0.06 -0.04 l0.94 0.06 q0.04 0 0.04 0.04 q0 0.06 -0.06 0.06 z M9.84 20 q-0.02 0 -0.04 -0.02 q-0.02 0 -0.02 -0.06 l0.94 -1.44 q0.04 -0.06 0.08 -0.02 q0.02 0.02 0.02 0.06 l-0.94 1.46 z M7.98 20.12 q-0.02 0 -0.02 -0.02 q-0.04 -0.04 -0.02 -0.06 l0.96 -1.32 q0.02 -0.02 0.08 -0.02 q0.04 0.04 0 0.08 l-0.96 1.32 q-0.02 0.02 -0.04 0.02 z M9.84 20 l-0.04 -0.02 l-0.9 -1.2 q-0.04 -0.02 0.02 -0.08 q0.04 0 0.06 0.02 l0.9 1.2 q0 0.04 -0.02 0.06 z M8.94 18.8 q-0.04 0 -0.04 -0.04 q0 -0.06 0.04 -0.06 l1.82 -0.24 q0.06 -0.02 0.06 0.04 q0 0.04 -0.04 0.04 l-1.82 0.26 l-0.02 0 z M10.78 18.54 q-0.04 0 -0.06 -0.02 l-1.02 -1.54 q-0.04 -0.04 0.02 -0.08 q0.04 0 0.06 0.02 l1.04 1.56 q0 0.04 -0.02 0.06 l-0.02 0 z M8.32 17.740000000000002 l-0.04 -0.02 q-0.02 -0.06 0.02 -0.08 l1.42 -0.74 q0.06 0 0.06 0.02 q0.02 0.04 -0.02 0.08 l-1.42 0.74 l-0.02 0 z M10.78 18.54 l-0.02 0 l-2.46 -0.8 q-0.04 -0.04 -0.04 -0.06 q0.02 -0.04 0.08 -0.04 l2.44 0.82 q0.04 0 0.04 0.06 q0 0.02 -0.04 0.02 z M8.94 18.8 q-0.02 0 -0.02 -0.01 t-0.02 -0.01 l-0.62 -1.06 q-0.02 -0.06 0.02 -0.08 q0.02 -0.02 0.06 0.02 l0.62 1.06 q0.04 0.04 0 0.08 l-0.04 0 z M8.32 17.740000000000002 q-0.02 0 -0.06 -0.04 l-0.18 -0.64 q-0.06 -0.06 0.02 -0.06 q0.06 0 0.06 0.04 l0.2 0.64 q0.02 0.02 -0.02 0.06 l-0.02 0 z M7.98 20.12 q-0.02 0 -0.02 -0.01 t-0.02 -0.01 l-1.08 -1.44 q0 -0.06 0.02 -0.08 q0.06 -0.06 0.06 0.02 l1.08 1.44 q0.02 0.04 0 0.06 t-0.04 0.02 z M8.94 18.8 l-2.04 -0.12 q-0.04 0 -0.04 -0.06 q0 -0.04 0.06 -0.04 l2.02 0.12 q0.06 0 0.06 0.06 q0 0.04 -0.06 0.04 z M6.9 18.68 q-0.02 -0.02 -0.04 -0.02 q0 -0.06 0.02 -0.08 l1.4 -0.94 q0.06 0 0.08 0.02 q0.06 0.06 -0.02 0.06 l-1.4 0.94 q-0.02 0.02 -0.04 0.02 z M6.9 18.68 q-0.02 0 -0.02 -0.02 q-0.04 -0.02 0 -0.06 l1.2 -1.58 q0.04 -0.04 0.08 -0.02 q0.04 0.04 0 0.08 l-1.22 1.58 q-0.02 0.02 -0.04 0.02 z M6.9 18.68 q-0.04 0 -0.04 -0.04 l-0.2 -1.84 q-0.02 -0.02 0.04 -0.06 q0.04 0 0.04 0.06 l0.22 1.82 q0 0.06 -0.04 0.06 l-0.02 0 z M6.9 18.68 l-0.02 -0.02 l-1.46 -1.66 q-0.04 -0.02 0 -0.06 t0.08 0 l1.44 1.66 q0.02 0.04 0 0.06 q0 0.02 -0.04 0.02 z M6.9 18.68 l-2.08 -0.52 q-0.04 0 -0.04 -0.06 q0.04 -0.04 0.06 -0.04 l2.08 0.52 q0.04 0 0.04 0.06 q0 0.04 -0.06 0.04 z M5.82 20 q-0.04 0 -0.04 -0.04 l-0.98 -1.82 q-0.04 -0.04 0.02 -0.08 q0.04 0 0.06 0.02 l0.98 1.84 q0.06 0.06 -0.02 0.06 q0 0.02 -0.02 0.02 z M6.58 19.42 l-0.02 0 q-0.02 0 -0.02 -0.06 l0.32 -0.76 q0.04 -0.04 0.06 -0.02 q0.04 0 0.04 0.06 l-0.32 0.76 q-0.02 0.02 -0.06 0.02 z M6.58 19.42 l-0.02 0 l-1.76 -1.26 q-0.04 -0.04 0 -0.08 q0.02 -0.02 0.06 0 l1.76 1.26 q0.02 0.04 0 0.06 q0 0.02 -0.04 0.02 z M5.82 20 q-0.02 0 -0.02 -0.01 t-0.02 -0.01 q-0.04 -0.02 0.02 -0.08 l0.76 -0.56 q0.06 -0.06 0.06 0 q0.04 0.04 0 0.08 l-0.76 0.56 q-0.02 0.02 -0.04 0.02 z M7.98 20.12 q-0.02 0 -0.02 -0.02 l-1.4 -0.68 q-0.02 -0.02 -0.02 -0.06 q0.02 -0.04 0.08 -0.02 l1.38 0.68 q0.06 0.02 0.02 0.06 q0 0.04 -0.04 0.04 z M23.119999999999997 7.26 q-0.02 0 -0.04 -0.02 q-0.04 -0.02 0 -0.06 l0.88 -0.98 q0.04 -0.04 0.08 0 t0 0.08 l-0.88 0.96 q-0.02 0.02 -0.04 0.02 z M23.119999999999997 7.26 q-0.04 0 -0.04 -0.04 l-0.44 -1.88 q0 -0.06 0.04 -0.06 q0.06 -0.02 0.06 0.04 l0.44 1.88 q0 0.06 -0.04 0.06 l-0.02 0 z M24 6.279999999999999 l-0.02 0 l-1.32 -0.92 q-0.04 -0.02 0 -0.06 q0 -0.08 0.06 -0.02 l1.32 0.92 q0.02 0.04 0 0.06 q0 0.02 -0.04 0.02 z M22 8.48 q-0.02 0 -0.02 -0.02 q-0.02 -0.02 -0.02 -0.06 l1.12 -1.22 q0.04 -0.04 0.08 0 q0.06 0 0 0.06 l-1.12 1.22 q0 0.02 -0.04 0.02 z M22 8.48 l-0.02 0 l-1 -0.56 q-0.04 0 -0.04 -0.06 q0.04 -0.04 0.08 -0.02 l1.02 0.54 q0.02 0.02 0.02 0.08 q-0.02 0.02 -0.06 0.02 z M21 7.9399999999999995 l-0.02 0 q-0.04 -0.04 -0.04 -0.06 l0.32 -1.62 q0 -0.04 0.06 -0.04 q0.04 0 0.04 0.06 l-0.32 1.62 q0 0.04 -0.04 0.04 z M22 8.48 q-0.04 0 -0.04 -0.04 l-0.7 -2.16 q0 -0.06 0.04 -0.06 q0.06 -0.06 0.06 0.02 l0.7 2.18 q0 0.02 -0.04 0.06 l-0.02 0 z M23.119999999999997 7.26 l-0.02 0 l-1.82 -0.96 q-0.02 0 -0.02 -0.06 q0.04 -0.04 0.08 -0.02 l1.8 0.94 q0.04 0.04 0.02 0.08 q-0.02 0.02 -0.04 0.02 z M21.32 6.32 q-0.06 0 -0.06 -0.06 l0.04 -1.42 q0 -0.06 0.04 -0.06 q0.06 0 0.06 0.06 l-0.04 1.42 q0 0.06 -0.04 0.06 z M21.32 6.32 l-0.04 -0.02 q-0.04 -0.04 0 -0.08 l1.38 -0.94 q0.02 -0.02 0.08 0.02 q0.02 0.02 -0.02 0.06 l-1.38 0.94 z M22.7 5.380000000000001 q-0.02 0 -0.02 -0.02 l-1.34 -0.48 q-0.04 0 -0.04 -0.06 q0.04 -0.04 0.06 -0.02 l1.36 0.48 q0.08 0 0.02 0.06 q0 0.04 -0.04 0.04 z M21 7.9399999999999995 l-0.02 0 l-1.06 -0.38 q-0.04 -0.04 -0.02 -0.06 q0 -0.04 0.06 -0.04 l1.06 0.38 q0.08 0 0.02 0.06 q0 0.04 -0.04 0.04 z M19.94 7.5600000000000005 q-0.02 0 -0.04 -0.02 q-0.04 -0.02 0 -0.06 l1.38 -1.26 q0.06 -0.06 0.06 0.02 q0.02 0.04 0 0.06 l-1.36 1.24 q-0.02 0.02 -0.04 0.02 z M21.32 6.32 l-0.02 0 l-1.52 -0.48 q-0.04 0 -0.04 -0.06 q0 -0.04 0.06 -0.04 l1.52 0.48 q0.04 0 0.04 0.06 q0 0.04 -0.04 0.04 z M19.78 5.84 q-0.02 0 -0.04 -0.02 q0 -0.06 0.02 -0.06 l1.56 -0.96 q0.04 -0.04 0.08 0.02 q0 0.04 -0.02 0.06 l-1.56 0.96 l-0.04 0 z M21.34 4.880000000000001 l-1.2 -0.14 q-0.06 0 -0.06 -0.06 q0.04 -0.04 0.06 -0.04 l1.22 0.14 q0.04 0.04 0.04 0.06 q0 0.04 -0.06 0.04 z M19.78 5.84 q-0.04 0 -0.04 -0.06 l0.36 -1.1 q0 -0.06 0.06 -0.04 q0.08 0 0.02 0.06 l-0.34 1.1 q0 0.04 -0.06 0.04 z M19.94 7.5600000000000005 q-0.04 0 -0.04 -0.04 l-0.16 -1.72 q0 -0.06 0.04 -0.06 q0.06 0 0.06 0.04 l0.16 1.72 q0 0.06 -0.06 0.06 z M18.8 4.800000000000001 q-0.02 0 -0.06 -0.04 q0 -0.06 0.06 -0.06 l1.34 -0.06 q0.04 0 0.04 0.04 q0.02 0.06 -0.04 0.06 z M19.78 5.84 q-0.02 0 -0.02 -0.02 l-1 -1.04 q-0.04 -0.02 0 -0.06 t0.08 0 l0.98 1.04 q0.06 0.06 0 0.06 q0 0.02 -0.04 0.02 z M18.32 6.4399999999999995 q-0.04 -0.02 -0.04 -0.06 l0.48 -1.64 q0 -0.04 0.06 -0.04 q0.04 0.04 0.02 0.06 l-0.46 1.64 q-0.04 0.04 -0.06 0.04 z M18.32 6.4399999999999995 q-0.04 0 -0.04 -0.04 q-0.06 -0.06 0.02 -0.06 l1.48 -0.6 q0.04 0 0.06 0.04 q0 0.04 -0.04 0.06 l-1.46 0.6 l-0.02 0 z M19.94 7.5600000000000005 l-0.02 0 l-1.62 -1.14 q-0.08 0 -0.02 -0.06 q0.04 -0.04 0.08 -0.02 l1.62 1.12 q0.04 0.04 0 0.08 q0 0.02 -0.04 0.02 z M18.92 7.859999999999999 q-0.04 0 -0.04 -0.04 q-0.04 -0.06 0.04 -0.06 l1 -0.3 q0.06 0 0.08 0.04 q0 0.06 -0.04 0.06 l-1.02 0.28 z M18.44 8.7 l-0.02 0 q-0.06 -0.04 -0.02 -0.08 l0.48 -0.84 q0.04 -0.04 0.06 -0.02 q0.06 0.02 0.02 0.06 l-0.48 0.86 q0 0.02 -0.04 0.02 z M18.78 9.8 q-0.06 0 -0.06 -0.02 l-0.32 -1.12 q-0.02 -0.02 0.02 -0.06 q0.06 0 0.06 0.04 l0.34 1.1 q0 0.06 -0.04 0.06 z M20.22 10.74 l-0.02 0 l-1.46 -0.94 q-0.02 -0.02 -0.02 -0.06 q0.04 -0.06 0.08 -0.02 l1.44 0.94 q0.08 0 0.02 0.06 q0 0.02 -0.04 0.02 z M18.92 7.859999999999999 q-0.04 0 -0.04 -0.04 l-0.6 -1.42 q-0.06 -0.06 0.02 -0.06 q0.04 -0.02 0.08 0.02 l0.58 1.42 q0.06 0.06 -0.02 0.06 q0 0.02 -0.02 0.02 z M18.44 8.7 l-0.02 0 l-1.34 -0.5 q-0.08 0 -0.02 -0.06 q0 -0.08 0.06 -0.02 l1.34 0.48 q0.04 0.04 0.02 0.06 q0 0.04 -0.04 0.04 z M17.1 8.2 q-0.04 0 -0.04 -0.04 q-0.02 -0.02 0.04 -0.06 l1.82 -0.34 q0.02 -0.02 0.06 0.04 q0 0.02 -0.04 0.06 l-1.82 0.34 l-0.02 0 z M17.1 8.2 l-0.02 0 q-0.04 -0.04 -0.02 -0.08 l1.22 -1.76 q0.04 -0.04 0.08 -0.02 q0.04 0.04 0 0.08 l-1.22 1.76 q0 0.02 -0.04 0.02 z M18.32 6.4399999999999995 q-0.02 0 -0.02 -0.02 l-1.08 -1.06 q-0.04 -0.04 0 -0.08 t0.08 0 l1.06 1.06 q0.04 0.04 0 0.08 q0 0.02 -0.04 0.02 z M17.259999999999998 5.380000000000001 q-0.02 0 -0.06 -0.04 q0 -0.06 0.04 -0.06 l1.54 -0.58 q0.06 0 0.06 0.04 q0.02 0.02 -0.02 0.06 l-1.54 0.56 z M17.1 8.2 q-0.04 0 -0.04 -0.04 l0.14 -2.84 q0 -0.02 0.02 -0.04 t0.04 0 q0.04 0 0.04 0.04 l-0.14 2.84 q0 0.04 -0.06 0.04 z M17.1 8.2 q-0.02 0 -0.04 -0.02 l-0.78 -1.08 q-0.02 -0.02 0.02 -0.06 q0.06 -0.06 0.06 0 l0.78 1.08 q0.02 0.06 0 0.08 l-0.04 0 z M16.32 7.119999999999999 l-0.02 0 q-0.04 -0.04 -0.02 -0.06 l0.94 -1.76 q0 -0.08 0.06 -0.02 q0.04 0.04 0.02 0.06 l-0.92 1.76 q-0.02 0.02 -0.06 0.02 z M16.2 6.24 l-0.04 0 q-0.02 -0.06 0 -0.08 l1.06 -0.88 q0.04 -0.04 0.08 0 q0.02 0.04 -0.02 0.08 l-1.04 0.88 l-0.04 0 z M16.32 7.119999999999999 q-0.04 0 -0.04 -0.04 l-0.14 -0.88 q0 -0.02 0.06 -0.06 q0.04 0 0.04 0.06 l0.14 0.86 q0 0.06 -0.04 0.06 l-0.02 0 z M15.34 7.859999999999999 l-0.02 0 q-0.08 0 -0.02 -0.06 l0.86 -1.62 q0 -0.08 0.06 -0.02 q0.08 0 0.02 0.06 l-0.86 1.62 q0 0.02 -0.04 0.02 z M15.34 7.859999999999999 q-0.04 0 -0.04 -0.02 q-0.04 -0.02 0 -0.06 l1 -0.74 q0.06 -0.06 0.06 0 q0.04 0.04 0 0.08 l-1 0.74 l-0.02 0 z M17.1 8.2 l-1.78 -0.34 q-0.04 0 -0.04 -0.06 q0.04 -0.04 0.06 -0.02 l1.78 0.32 q0.04 0.04 0.04 0.06 q-0.02 0.04 -0.06 0.04 z M15.16 9.2 q-0.04 0 -0.04 -0.06 l0.16 -1.32 q0 -0.06 0.06 -0.06 q0.04 0.04 0.04 0.06 l-0.16 1.34 q0 0.04 -0.06 0.04 z M15.16 9.2 l-0.04 -0.04 q0 -0.04 0.02 -0.06 l1.94 -0.98 q0.06 -0.06 0.06 0.02 q0.04 0.04 -0.02 0.06 l-1.92 1 l-0.04 0 z M15.52 10.82 q-0.02 0 -0.06 -0.04 l-0.34 -1.62 q0 -0.06 0.04 -0.06 q0.06 0 0.06 0.04 l0.34 1.62 q0 0.06 -0.04 0.06 z M15.52 10.82 q-0.04 0 -0.04 -0.02 q-0.06 -0.06 0 -0.06 l1.28 -0.82 q0.06 0 0.08 0.02 q0 0.06 -0.02 0.08 l-1.28 0.8 l-0.02 0 z M16.8 10.02 l-0.04 0 l-1.62 -0.82 q-0.02 -0.02 -0.02 -0.08 q0.04 -0.04 0.08 -0.02 l1.62 0.82 q0.02 0.02 0.02 0.08 z M16.8 10.02 l-0.02 0 q-0.04 0 -0.04 -0.06 l0.32 -1.82 q0 -0.04 0.06 -0.04 q0.04 0.04 0.04 0.06 l-0.32 1.82 q0 0.04 -0.04 0.04 z M16.8 10.02 q-0.04 0 -0.04 -0.02 q-0.04 -0.04 0 -0.08 l1.64 -1.3 q0.04 -0.04 0.08 0 q0.06 0.06 -0.02 0.06 l-1.64 1.32 z M16.94 11.66 q-0.04 0 -0.04 -0.04 l-0.16 -1.64 q0 -0.06 0.04 -0.06 q0.06 0 0.06 0.04 l0.16 1.64 q0 0.06 -0.04 0.06 l-0.02 0 z M18.44 11.68 l-1.5 -0.02 q-0.06 0 -0.06 -0.06 q0 -0.04 0.06 -0.04 l1.5 0.02 q0.04 0 0.04 0.06 q0 0.04 -0.04 0.04 z M18.44 11.68 l-0.04 0 l-1.64 -1.68 q-0.04 -0.02 0 -0.06 q0.02 -0.02 0.06 0 l1.66 1.66 q0.04 0.04 0 0.08 l-0.04 0 z M16.8 10.02 q-0.06 0 -0.06 -0.04 q0 -0.06 0.04 -0.06 l1.98 -0.22 q0.06 0 0.06 0.06 q0 0.04 -0.04 0.04 z M18.44 11.68 q-0.08 0 -0.04 -0.06 l0.32 -1.88 q0 -0.04 0.06 -0.04 q0.04 0.04 0.04 0.06 l-0.32 1.88 q-0.04 0.04 -0.06 0.04 z M18.44 11.68 q-0.04 0 -0.04 -0.02 q-0.06 -0.06 0.02 -0.06 l1.78 -0.96 q0.06 0 0.06 0.02 q0.02 0.04 -0.02 0.08 l-1.78 0.94 l-0.02 0 z M16.94 11.66 l-0.02 0 l-1.44 -0.84 q-0.02 -0.02 0 -0.08 q0 -0.06 0.06 0 l1.42 0.82 q0.04 0.06 0.02 0.08 q0 0.02 -0.04 0.02 z M16.72 12.36 q-0.04 0 -0.04 -0.02 l-1.2 -1.54 q-0.04 -0.02 0 -0.06 t0.08 0 l1.2 1.54 q0.02 0.04 -0.02 0.08 l-0.02 0 z M16.72 12.36 l-0.02 0 q-0.04 0 -0.04 -0.06 l0.24 -0.7 q0 -0.04 0.06 -0.04 q0.04 0.04 0.04 0.06 l-0.24 0.7 q0 0.04 -0.04 0.04 z M18.740000000000002 13.280000000000001 l-0.02 0 l-2.02 -0.92 q-0.04 -0.02 -0.04 -0.06 q0.02 -0.04 0.08 -0.04 l2.02 0.92 q0.02 0.02 0.02 0.08 q-0.02 0 -0.02 0.01 t-0.02 0.01 z M18.740000000000002 13.280000000000001 q-0.06 0 -0.06 -0.04 l-0.28 -1.6 q-0.02 -0.02 0.04 -0.06 q0.02 0 0.06 0.04 l0.28 1.6 q0 0.06 -0.04 0.06 z M18.740000000000002 13.280000000000001 q-0.04 0 -0.04 -0.02 l-1.78 -1.62 q-0.04 -0.02 0 -0.06 q0 -0.06 0.06 0 l1.78 1.62 q0.02 0.04 0 0.06 z M18.740000000000002 13.280000000000001 q-0.04 0 -0.06 -0.02 q0 -0.06 0.02 -0.08 l1.06 -0.7 q0.02 -0.02 0.08 0.02 q0 0.04 -0.02 0.06 l-1.06 0.72 l-0.02 0 z M19.78 12.58 l-0.02 -0.02 l-1.34 -0.88 q-0.04 -0.04 -0.02 -0.08 q0.02 -0.02 0.08 0 l1.34 0.88 q0.02 0.02 0.02 0.08 q-0.02 0 -0.03 0.01 t-0.03 0.01 z M19.78 12.58 q-0.04 -0.04 -0.04 -0.06 l0.44 -1.84 q0 -0.04 0.06 -0.04 q0.04 0.04 0.02 0.06 l-0.42 1.84 q0 0.04 -0.06 0.04 z M21.36 11.24 l-0.02 0 l-1.14 -0.5 q-0.04 -0.04 -0.02 -0.06 q0 -0.04 0.06 -0.04 l1.14 0.5 q0.04 0.04 0.04 0.08 q-0.02 0.02 -0.06 0.02 z M19.78 12.58 l-0.02 -0.02 q-0.04 -0.04 0 -0.08 l1.58 -1.32 q0.02 -0.02 0.06 0 q0.04 0.04 0 0.08 l-1.58 1.32 q-0.02 0.02 -0.04 0.02 z M21.66 13.620000000000001 l-0.02 0 l-1.88 -1.06 q-0.02 0 -0.02 -0.06 q0.04 -0.04 0.08 -0.02 l1.86 1.06 q0.08 0 0.02 0.06 q0 0.02 -0.04 0.02 z M21.66 13.620000000000001 l-0.02 0 q-0.08 0 -0.02 -0.06 l0.56 -1.26 q0 -0.04 0.06 -0.04 q0.04 0.04 0.02 0.08 l-0.56 1.26 q0 0.02 -0.04 0.02 z M19.78 12.58 q-0.04 0 -0.04 -0.06 q0 -0.04 0.04 -0.04 l2.44 -0.22 q0.04 0 0.04 0.04 q0 0.06 -0.04 0.06 l-2.42 0.22 l-0.02 0 z M22.22 12.36 q-0.04 0 -0.04 -0.02 l-0.86 -1.12 q-0.06 -0.06 0.02 -0.06 q0.02 -0.02 0.06 0 l0.86 1.12 q0.02 0.04 -0.02 0.08 l-0.02 0 z M23.119999999999997 12.34 q-0.02 0 -0.02 -0.02 l-1.76 -1.08 q-0.06 -0.04 -0.02 -0.08 q0.02 -0.02 0.08 -0.02 l1.74 1.1 q0.04 0.02 0.02 0.08 q-0.02 0.02 -0.04 0.02 z M22.22 12.36 q-0.06 0 -0.06 -0.04 q0 -0.06 0.06 -0.06 l0.9 -0.02 q0.06 0 0.06 0.04 q0 0.06 -0.06 0.06 z M23.34 14.48 q-0.04 0 -0.04 -0.04 l-0.22 -2.14 q-0.04 -0.06 0.04 -0.06 q0.02 0 0.06 0.04 l0.22 2.14 q0 0.06 -0.04 0.06 l-0.02 0 z M23.34 14.48 l-0.04 -0.04 l-1.12 -2.1 q-0.04 -0.04 0.02 -0.08 q0.04 0 0.06 0.02 l1.14 2.12 q0 0.06 -0.02 0.08 l-0.04 0 z M23.34 14.48 l-0.02 0 l-1.68 -0.86 q-0.08 0 -0.02 -0.06 q0 -0.08 0.06 -0.02 l1.7 0.84 q0.02 0.02 0.02 0.06 q-0.04 0.04 -0.06 0.04 z M20.28 14.059999999999999 l-0.02 0 l-1.56 -0.78 q-0.02 -0.02 -0.02 -0.08 q0.02 -0.02 0.08 -0.02 l1.56 0.78 q0.02 0.02 0.02 0.06 q-0.04 0.04 -0.06 0.04 z M20.28 14.059999999999999 q-0.04 0 -0.04 -0.04 l-0.5 -1.48 q0 -0.06 0.04 -0.06 q0.02 -0.02 0.06 0.02 l0.5 1.48 q0 0.06 -0.04 0.08 l-0.02 0 z M20.28 14.059999999999999 q-0.04 0 -0.04 -0.04 q0 -0.06 0.04 -0.06 l1.36 -0.42 q0.06 -0.02 0.06 0.02 q0.02 0.06 -0.02 0.06 l-1.38 0.44 l-0.02 0 z M21.060000000000002 15.18 q-0.04 0 -0.04 -0.02 l-0.78 -1.12 q0 -0.06 0.02 -0.08 t0.08 0.02 l0.76 1.12 q0.02 0.04 -0.02 0.08 l-0.02 0 z M21.060000000000002 15.18 l-0.02 0 q-0.04 -0.04 -0.04 -0.06 l0.62 -1.56 q0 -0.08 0.06 -0.02 q0.08 0 0.02 0.06 l-0.6 1.54 q0 0.04 -0.04 0.04 z M21.060000000000002 15.18 q-0.02 0 -0.06 -0.04 q0 -0.02 0.04 -0.06 l2.3 -0.7 q0.04 0 0.06 0.04 q0 0.04 -0.04 0.06 l-2.28 0.7 l-0.02 0 z M24.14 13.84 q-0.04 0 -0.06 -0.02 l-1 -1.5 q-0.04 -0.02 0.02 -0.08 q0.02 -0.02 0.06 0.02 l1.02 1.5 q0 0.06 -0.02 0.08 l-0.02 0 z M23.34 14.48 l-0.02 -0.02 q-0.04 -0.04 0 -0.08 l0.78 -0.62 q0.06 -0.06 0.06 0 q0.06 0.06 0 0.06 l-0.78 0.64 q0 0.02 -0.04 0.02 z M20.6 16.28 l-0.02 0 q-0.08 0 -0.02 -0.06 l0.44 -1.1 q0.02 -0.04 0.08 -0.04 q0.04 0.04 0.02 0.08 l-0.44 1.1 q-0.02 0.02 -0.06 0.02 z M22 16.740000000000002 l-1.4 -0.46 q-0.04 0 -0.04 -0.06 q0 -0.04 0.06 -0.04 l1.4 0.46 q0.04 0 0.04 0.06 q-0.04 0.04 -0.06 0.04 z M22 16.740000000000002 l-0.04 -0.04 l-0.94 -1.54 q-0.04 -0.04 0 -0.08 q0.06 0 0.08 0.02 l0.94 1.56 q0.06 0.06 0 0.06 q-0.02 0.02 -0.04 0.02 z M22 16.740000000000002 l-0.04 -0.04 q-0.02 -0.02 0.02 -0.06 l1.74 -1 q0.04 -0.04 0.06 0.02 q0.02 0.02 -0.02 0.06 l-1.72 1 q-0.02 0.02 -0.04 0.02 z M23.740000000000002 15.719999999999999 l-2.7 -0.54 q-0.04 0 -0.04 -0.06 q0.04 -0.04 0.06 -0.04 l2.7 0.54 q0.04 0.04 0.02 0.06 q0 0.04 -0.04 0.04 z M23.740000000000002 15.719999999999999 q-0.04 0 -0.04 -0.02 l-0.4 -1.26 q0 -0.06 0.04 -0.06 t0.06 0.04 l0.38 1.24 q0.02 0.06 -0.02 0.06 l-0.02 0 z M24.4 15.18 q-0.04 0 -0.04 -0.04 l-0.28 -1.34 q0 -0.06 0.04 -0.06 q0.06 0 0.06 0.04 l0.28 1.34 q0 0.06 -0.04 0.06 l-0.02 0 z M24.4 15.18 l-0.02 0 l-1.06 -0.72 q-0.02 0 -0.02 -0.06 q0.04 -0.04 0.08 -0.02 l1.06 0.7 q0.04 0.04 0 0.08 q0 0.02 -0.04 0.02 z M23.740000000000002 15.719999999999999 l-0.04 0 q-0.02 -0.06 0 -0.08 l0.68 -0.54 q0.02 -0.02 0.06 0 q0.06 0.06 0 0.06 l-0.66 0.56 l-0.04 0 z M24.08 16.96 l-0.02 0 q-0.04 0 -0.04 -0.06 l0.34 -1.78 q0 -0.04 0.06 -0.04 q0.04 0 0.04 0.06 l-0.34 1.78 q0 0.04 -0.04 0.04 z M24.08 16.96 q-0.06 0 -0.06 -0.04 l-0.32 -1.22 q-0.04 -0.06 0.02 -0.06 q0.06 -0.02 0.06 0.02 l0.34 1.24 q0 0.06 -0.04 0.06 z M24.08 16.96 l-0.02 0 l-2.06 -0.22 q-0.04 0 -0.04 -0.06 q0 -0.04 0.06 -0.04 l2.06 0.22 q0.04 0 0.04 0.06 q0 0.04 -0.04 0.04 z M23.08 18.36 q-0.02 0 -0.02 -0.02 q-0.08 0 -0.02 -0.06 l1 -1.4 q0 -0.06 0.06 0 q0.02 0 0.02 0.06 l-1 1.4 q0 0.02 -0.04 0.02 z M23.08 18.36 q-0.04 0 -0.04 -0.02 l-1.08 -1.62 q-0.02 -0.04 0.02 -0.08 q0.06 -0.06 0.06 0.02 l1.08 1.62 q0.04 0.04 -0.02 0.08 l-0.02 0 z M19.64 16.84 q-0.04 0 -0.04 -0.02 q-0.06 -0.06 0.02 -0.06 l0.96 -0.56 q0.06 -0.06 0.06 0.02 q0.02 0.04 0 0.06 l-0.98 0.56 l-0.02 0 z M19.3 18.16 q-0.04 0 -0.04 -0.06 l0.32 -1.32 q0.04 -0.04 0.08 -0.04 q0.04 0.04 0.02 0.08 l-0.32 1.3 q0 0.04 -0.06 0.04 z M19.3 18.16 l-0.02 0 q-0.02 -0.02 -0.02 -0.08 l1.3 -1.88 q0.04 -0.04 0.08 0 q0.02 0.04 0 0.06 l-1.28 1.88 q-0.02 0.02 -0.06 0.02 z M20.44 18.42 l-0.02 0 l-1.12 -0.26 q-0.04 0 -0.04 -0.06 q0 -0.04 0.06 -0.04 l1.12 0.26 q0.04 0 0.04 0.06 q0 0.04 -0.04 0.04 z M20.44 18.42 l-0.02 0 q-0.04 -0.04 -0.04 -0.06 l0.18 -2.12 q0 -0.06 0.06 -0.06 q0.04 0 0.04 0.06 l-0.18 2.12 q0 0.06 -0.04 0.06 z M20.44 18.42 l-0.04 -0.02 q-0.04 -0.04 0 -0.08 l1.56 -1.68 q0.04 -0.04 0.08 0 t0 0.08 l-1.56 1.68 z M20.44 18.42 q-0.06 0 -0.06 -0.06 q0 -0.04 0.06 -0.04 l2.64 -0.06 q0.02 0 0.06 0.04 q0 0.06 -0.06 0.06 z M21.7 19.46 l-0.04 -0.02 q-0.04 -0.04 0 -0.08 l1.38 -1.1 q0.06 0 0.08 0.02 q0.06 0.06 0 0.06 l-1.4 1.1 z M21.7 19.46 q-0.02 0 -0.04 -0.02 l-1.26 -1.04 q-0.04 -0.02 0 -0.06 q0.02 -0.06 0.06 -0.02 l1.26 1.04 q0.02 0.02 0.02 0.08 z M19.64 16.84 l-1.12 -0.1 q-0.04 0 -0.04 -0.06 q0 -0.04 0.06 -0.04 l1.1 0.1 q0.06 0.04 0.04 0.06 q0 0.04 -0.04 0.04 z M19.3 18.16 q-0.02 0 -0.04 -0.02 l-0.78 -1.44 q-0.02 -0.02 0.02 -0.06 q0.06 -0.06 0.06 0.02 l0.8 1.44 q0 0.04 -0.02 0.06 l-0.04 0 z M19.18 20.06 q-0.04 0 -0.04 -0.06 l0.12 -1.88 q0 -0.06 0.06 -0.06 q0.04 0 0.04 0.06 l-0.12 1.88 q0 0.06 -0.06 0.06 z M19.18 20.06 q-0.02 0 -0.02 -0.02 q-0.02 -0.02 -0.02 -0.06 l1.26 -1.64 q0.02 -0.06 0.06 -0.02 q0.04 0.06 0.02 0.08 l-1.26 1.64 q-0.02 0.02 -0.04 0.02 z M19.18 20.06 q-0.04 0 -0.04 -0.04 q0 -0.06 0.04 -0.06 l2.5 -0.6 q0.06 0 0.06 0.04 t-0.04 0.06 l-2.5 0.6 l-0.02 0 z M19.18 20.06 l-1.58 -0.26 q-0.04 0 -0.04 -0.06 q0.04 -0.04 0.06 -0.04 l1.58 0.26 q0.04 0 0.04 0.06 q0 0.04 -0.06 0.04 z M17.62 19.8 q-0.04 0 -0.04 -0.02 q-0.04 -0.02 0 -0.06 l1.7 -1.64 q0.02 -0.02 0.06 0 q0.04 0.04 0 0.08 l-1.7 1.62 z M19.3 18.16 l-2.04 -0.22 q-0.06 0 -0.06 -0.06 q0.04 -0.04 0.06 -0.04 l2.06 0.22 q0.04 0 0.04 0.06 q0 0.04 -0.06 0.04 z M17.259999999999998 17.94 q-0.02 0 -0.04 -0.02 q-0.04 -0.02 0 -0.06 l1.28 -1.22 q0.02 -0.02 0.06 0 q0.04 0.04 0 0.08 l-1.26 1.2 z M17.62 19.8 q-0.02 0 -0.06 -0.04 l-0.36 -1.86 q0 -0.06 0.04 -0.06 q0.06 0 0.06 0.04 l0.36 1.86 q0 0.06 -0.04 0.06 z M17.62 19.8 l-0.02 0 l-1.48 -0.74 q-0.08 0 -0.02 -0.06 q0.04 -0.04 0.06 -0.02 l1.48 0.72 q0.04 0.04 0.02 0.08 q-0.02 0.02 -0.04 0.02 z M16.14 19.06 l-0.04 0 q-0.04 -0.04 0 -0.08 l1.12 -1.12 q0.04 -0.04 0.08 0 q0.02 0.04 0 0.06 l-1.12 1.14 l-0.04 0 z M17.259999999999998 17.94 q-0.06 0 -0.06 -0.06 l0.18 -1.88 q0 -0.04 0.06 -0.04 q0.04 0 0.04 0.06 l-0.18 1.88 q0 0.04 -0.04 0.04 z M18.52 16.740000000000002 q-0.02 0 -0.02 -0.02 l-1.1 -0.66 q-0.04 -0.04 0 -0.08 q0 -0.02 0.06 -0.02 l1.1 0.68 q0.02 0.04 0 0.06 q0 0.04 -0.04 0.04 z M17.259999999999998 17.94 q-0.02 0 -0.04 -0.02 l-1.48 -1.38 q-0.06 0 0 -0.06 q0 -0.06 0.06 0 l1.5 1.38 q0.02 0.04 0 0.06 t-0.04 0.02 z M14.620000000000001 17.88 l-0.04 -0.02 q-0.02 -0.02 0 -0.08 l1.14 -1.3 q0.04 -0.04 0.08 0 q0.02 0.04 0 0.06 l-1.14 1.32 z M17.259999999999998 17.94 l-2.64 -0.06 q-0.06 0 -0.06 -0.06 q0 -0.04 0.06 -0.04 l2.64 0.06 q0.04 0 0.04 0.06 q0 0.04 -0.04 0.04 z M16.14 19.06 l-0.02 0 l-1.54 -1.2 q-0.04 -0.02 0 -0.06 t0.06 -0.02 l1.54 1.2 q0.02 0.04 0 0.06 q0 0.02 -0.04 0.02 z M15.76 16.56 q-0.04 0 -0.04 -0.04 t0.04 -0.06 l1.66 -0.5 q0.06 0 0.06 0.04 q0.02 0.02 -0.02 0.06 l-1.68 0.5 l-0.02 0 z M17.44 16.06 q-0.02 0 -0.04 -0.02 l-0.7 -0.64 q-0.06 -0.04 -0.02 -0.08 t0.08 0 l0.7 0.66 q0.06 0.02 0.02 0.06 z M15.76 16.56 l-0.02 0 q-0.02 -0.02 -0.02 -0.08 l0.96 -1.16 q0.04 -0.04 0.08 0 q0.02 0.02 0 0.08 l-0.96 1.14 q0 0.02 -0.04 0.02 z M29.28 6.140000000000001 q-0.02 0 -0.03 -0.01 t-0.03 -0.01 l-0.88 -1.64 q-0.02 -0.02 0.02 -0.06 q0.06 -0.06 0.06 0.02 l0.9 1.62 q0.06 0.06 -0.02 0.06 z M28.38 7.66 q-0.02 0 -0.02 -0.02 q-0.08 0 -0.02 -0.06 l0.88 -1.52 q0.04 -0.04 0.08 -0.02 q0.04 0.04 0.02 0.08 l-0.9 1.52 q-0.02 0.02 -0.04 0.02 z M28.38 7.66 q-0.04 0 -0.04 -0.06 l0 -3.14 q0 -0.04 0.04 -0.04 q0.06 0 0.06 0.04 l0 3.14 q0 0.06 -0.06 0.06 z M30.08 4.52 l-1.7 0 q-0.04 0 -0.04 -0.06 q0 -0.04 0.04 -0.04 l1.7 0 q0.04 0 0.04 0.06 q0 0.04 -0.04 0.04 z M29.28 6.140000000000001 l-0.02 0 q-0.04 -0.02 -0.04 -0.08 l0.8 -1.62 q0.04 -0.04 0.08 -0.02 q0.04 0.04 0.02 0.06 l-0.8 1.62 z M30.759999999999998 6.539999999999999 l-0.02 0 l-1.48 -0.4 q-0.04 -0.04 -0.04 -0.06 q0.02 -0.04 0.06 -0.04 l1.48 0.4 q0.04 0 0.04 0.06 q0 0.04 -0.04 0.04 z M30.759999999999998 6.539999999999999 q-0.02 0 -0.06 -0.04 l-0.68 -2.02 q0 -0.06 0.04 -0.06 q0.06 -0.06 0.06 0.02 l0.68 2.04 q0 0.04 -0.04 0.06 z M31.419999999999998 4.52 l-1.34 0 q-0.06 0 -0.06 -0.06 q0 -0.04 0.06 -0.04 l1.34 0 q0.04 0 0.04 0.06 q0 0.04 -0.04 0.04 z M30.759999999999998 6.539999999999999 l-0.02 0 q-0.04 -0.04 -0.04 -0.06 l0.68 -2.02 q0 -0.04 0.06 -0.04 q0.04 0.04 0.02 0.06 l-0.66 2.02 q0 0.04 -0.04 0.04 z M31.419999999999998 7.66 q-0.06 -0.02 -0.06 -0.06 l0 -3.12 q0 -0.06 0.06 -0.06 q0.04 0 0.04 0.06 l0 3.12 q0 0.06 -0.04 0.06 z M31.419999999999998 7.66 q-0.02 0 -0.06 -0.04 l-0.66 -1.1 q0 -0.06 0.02 -0.08 q0.04 -0.02 0.08 0.02 l0.66 1.12 q0 0.06 -0.02 0.06 z M30.02 8.48 l-0.02 0 l-1.64 -0.84 q-0.02 0 -0.02 -0.06 q0.04 -0.04 0.08 -0.02 l1.62 0.82 q0.04 0.04 0.02 0.06 z M30.02 8.48 q-0.02 0 -0.06 -0.04 l-0.74 -2.34 q0 -0.06 0.04 -0.06 q0.06 0 0.06 0.04 l0.74 2.34 q0 0.04 -0.04 0.06 z M30.02 8.48 l-0.02 0 q-0.04 -0.02 -0.04 -0.08 l0.74 -1.94 q0.04 -0.04 0.08 -0.02 q0.02 0 0.02 0.06 l-0.74 1.94 q0 0.04 -0.04 0.04 z M30.02 8.48 q-0.02 0 -0.03 -0.01 t-0.03 -0.01 q0 -0.06 0.02 -0.08 l1.4 -0.82 q0.02 -0.02 0.08 0.02 q0 0.06 -0.02 0.06 l-1.4 0.82 z M31.419999999999998 9.9 q-0.06 0 -0.06 -0.06 l0 -2.24 q0 -0.04 0.06 -0.04 q0.04 0 0.04 0.04 l0 2.24 q0 0.02 -0.04 0.06 z M31.419999999999998 9.9 q-0.02 0 -0.02 -0.01 t-0.02 -0.01 l-1.4 -1.42 q-0.04 -0.02 0 -0.06 q0.02 -0.02 0.06 0 l1.42 1.4 q0.04 0.04 0 0.08 q-0.02 0 -0.02 0.01 t-0.02 0.01 z M31.4 11.1 l-0.02 0 q-0.04 0 -0.04 -0.06 l0.02 -1.2 q0 -0.04 0.06 -0.04 q0.04 0 0.04 0.04 l-0.02 1.2 q0 0.06 -0.04 0.06 z M30 12 q-0.02 0 -0.04 -0.02 q0 -0.04 0.02 -0.06 l1.38 -0.92 q0.02 -0.02 0.08 0.02 q0 0.06 -0.02 0.06 l-1.38 0.92 l-0.04 0 z M30 12 l-0.02 0 q-0.02 -0.02 -0.02 -0.08 l1.42 -2.1 q0.04 -0.04 0.06 -0.02 q0.04 0.04 0.02 0.06 l-1.42 2.12 q0 0.02 -0.04 0.02 z M29.48 9.9 q-0.06 0 -0.06 -0.06 q0 -0.04 0.06 -0.04 l1.94 0 q0.04 0 0.04 0.04 q0 0.06 -0.04 0.06 l-1.94 0 z M30 12 q-0.04 0 -0.04 -0.04 l-0.54 -2.1 q0 -0.06 0.04 -0.06 q0.06 -0.06 0.06 0.04 l0.54 2.1 q0 0.06 -0.04 0.06 l-0.02 0 z M29.48 9.9 q-0.02 0 -0.06 -0.04 l-1.08 -2.24 q0 -0.06 0.02 -0.06 q0.04 -0.02 0.08 0.02 l1.08 2.24 q0 0.06 -0.02 0.06 z M29.48 9.9 l-0.02 0 q-0.04 -0.02 -0.04 -0.08 l0.54 -1.42 q0.04 -0.04 0.06 -0.02 q0.04 0 0.04 0.06 l-0.54 1.42 q0 0.04 -0.04 0.04 z M28.38 12.02 l-0.02 0 q-0.02 -0.02 -0.02 -0.08 l1.08 -2.12 q0.04 -0.04 0.08 -0.02 q0.02 0.02 0.02 0.06 l-1.08 2.12 q-0.04 0.04 -0.06 0.04 z M28.38 12.02 q-0.04 0 -0.04 -0.06 l0 -4.36 q0 -0.04 0.04 -0.04 q0.06 0 0.06 0.04 l0 4.36 q0 0.06 -0.06 0.06 z M28.38 12.02 q-0.04 0 -0.04 -0.06 q0 -0.04 0.04 -0.04 l1.62 -0.02 q0.06 0 0.06 0.06 t-0.06 0.06 l-1.62 0 z M28.38 14.48 q-0.04 0 -0.04 -0.04 l0 -2.48 q0 -0.04 0.04 -0.04 q0.06 0 0.06 0.04 l0 2.48 q0 0.04 -0.06 0.04 z M28.38 14.48 l-0.02 0 q-0.06 -0.04 -0.02 -0.08 l1.62 -2.48 q0.04 -0.04 0.08 0 q0.02 0.04 0 0.06 l-1.62 2.48 q0 0.02 -0.04 0.02 z M29.82 15.08 q-0.04 0 -0.04 -0.06 l0.18 -3.06 q0 -0.06 0.06 -0.06 q0.04 0 0.04 0.06 l-0.18 3.06 q0 0.06 -0.06 0.06 z M29.82 15.08 l-0.02 0 l-1.44 -0.6 q-0.04 -0.04 -0.02 -0.06 q0 -0.04 0.06 -0.04 l1.44 0.6 q0.04 0.02 0.04 0.06 q-0.04 0.04 -0.06 0.04 z M28.419999999999998 17.02 l-0.02 0 q-0.06 -0.04 -0.02 -0.08 l1.4 -1.94 q0.04 -0.04 0.08 -0.02 q0.04 0.04 0 0.08 l-1.4 1.94 q0 0.02 -0.04 0.02 z M28.419999999999998 17.02 q-0.04 0 -0.04 -0.04 l-0.04 -2.54 q0 -0.06 0.04 -0.06 q0.06 0 0.06 0.06 l0.04 2.54 q0 0.04 -0.06 0.04 z M31.419999999999998 16.3 q-0.04 0 -0.04 -0.02 l-1.58 -1.22 q-0.02 -0.02 -0.02 -0.06 q0.04 -0.04 0.08 -0.02 l1.58 1.22 q0.04 0.04 0 0.08 z M31.419999999999998 16.3 l-0.02 0 q-0.04 0 -0.04 -0.06 l0.06 -1.82 q0 -0.04 0.04 -0.04 q0.06 0 0.06 0.04 l-0.06 1.84 q0 0.04 -0.04 0.04 z M29.82 15.08 q-0.04 0 -0.04 -0.04 q0 -0.06 0.04 -0.06 l1.62 -0.6 q0.04 -0.02 0.08 0.02 q0 0.04 -0.04 0.08 l-1.64 0.6 l-0.02 0 z M31.46 14.48 l-0.02 0 q-0.04 -0.04 -0.02 -0.08 l0.54 -1.56 q0.04 -0.04 0.06 -0.04 q0.04 0.02 0.04 0.08 l-0.54 1.56 q-0.04 0.04 -0.06 0.04 z M32.019999999999996 12.9 q-0.04 0 -0.06 -0.02 l-0.62 -1.82 q0 -0.06 0.04 -0.06 q0.02 -0.02 0.06 0.02 l0.62 1.82 q0 0.06 -0.04 0.06 z M32.019999999999996 12.9 l-0.02 0 l-2.02 -0.9 q-0.02 0 -0.02 -0.06 q0.04 -0.04 0.06 -0.02 l2.02 0.9 q0.02 0 0.02 0.06 q-0.02 0.02 -0.04 0.02 z M31.46 14.48 q-0.02 0 -0.02 -0.01 t-0.02 -0.01 l-1.46 -2.48 q0 -0.06 0.02 -0.06 q0.04 -0.04 0.08 0.02 l1.44 2.46 q0.06 0.06 0 0.06 q-0.02 0.02 -0.04 0.02 z M32.019999999999996 12.9 q-0.04 0 -0.06 -0.02 q0 -0.06 0.04 -0.06 l1.16 -0.5 q0.06 -0.06 0.06 0.02 q0.06 0.06 -0.02 0.06 l-1.16 0.5 l-0.02 0 z M34.4 13.059999999999999 l-0.02 0 l-1.22 -0.66 q-0.04 -0.04 -0.02 -0.06 q0 -0.08 0.06 -0.02 l1.22 0.66 q0.08 0 0.02 0.06 q0 0.02 -0.04 0.02 z M34.879999999999995 14.48 q-0.04 0 -0.04 -0.04 l-0.5 -1.4 q0 -0.04 0.04 -0.08 q0.06 0 0.06 0.04 l0.5 1.42 q0 0.02 -0.04 0.06 l-0.02 0 z M34.879999999999995 16.78 q-0.04 0 -0.04 -0.06 l0 -2.28 q0 -0.04 0.04 -0.04 q0.06 0 0.06 0.04 l0 2.28 q0 0.06 -0.06 0.06 z M34.9 18.34 q-0.06 0 -0.06 -0.06 l0 -1.56 q0 -0.04 0.04 -0.04 q0.06 0 0.06 0.04 l0 1.58 q0 0.04 -0.04 0.04 z M28.38 20.06 q-0.04 -0.04 -0.04 -0.06 l0.04 -3.02 q0 -0.06 0.04 -0.06 q0.06 0 0.06 0.06 l-0.04 3.02 q0 0.06 -0.06 0.06 z M28.38 20.06 l-0.02 -0.02 q-0.02 -0.02 -0.02 -0.06 l1.1 -1.46 q0 -0.08 0.06 -0.02 q0.02 0.02 0.02 0.08 l-1.1 1.46 q-0.02 0.02 -0.04 0.02 z M29.48 18.6 q-0.04 0 -0.04 -0.04 l-1.06 -1.56 q-0.06 -0.06 0.02 -0.06 q0.02 -0.02 0.06 0 l1.06 1.58 q0 0.04 -0.02 0.06 z M30.18 17.28 q-0.04 0 -0.04 -0.06 l-0.36 -2.18 q0 -0.06 0.04 -0.06 q0.06 0 0.06 0.04 l0.36 2.2 q0 0.02 -0.04 0.06 l-0.02 0 z M30.2 17.28 l-1.78 -0.26 q-0.08 0 -0.04 -0.06 q0 -0.04 0.04 -0.04 l1.78 0.26 q0.08 0 0.04 0.04 q0 0.06 -0.04 0.06 z M29.48 18.6 q-0.02 0 -0.02 -0.01 t-0.02 -0.01 t-0.02 -0.06 l0.72 -1.32 q0.04 -0.04 0.08 -0.02 q0.02 0.02 0.02 0.06 l-0.72 1.32 z M30.18 17.28 l-0.02 -0.02 q-0.04 -0.04 0 -0.08 l1.22 -0.98 q0.06 -0.06 0.06 0.02 q0.02 0.04 0 0.06 l-1.22 0.98 q-0.02 0.02 -0.04 0.02 z M31.4 20.06 q-0.04 0 -0.04 -0.06 l0 -3.76 q0 -0.04 0.04 -0.04 q0.06 0 0.06 0.04 l0 3.76 q0 0.06 -0.06 0.06 z M31.4 20.06 l-0.04 -0.04 l-1.22 -2.78 q0 -0.06 0.02 -0.06 q0.04 -0.02 0.08 0.02 l1.22 2.78 q0 0.06 -0.04 0.06 q0 0.02 -0.02 0.02 z M31.4 20.06 l-0.02 -0.02 l-1.94 -1.46 q-0.04 -0.02 0 -0.06 q0 -0.08 0.06 -0.02 l1.94 1.46 q0.02 0.02 0 0.08 q-0.02 0.02 -0.04 0.02 z M31.4 20.06 l-3.02 0 q-0.06 0 -0.06 -0.04 q0 -0.06 0.06 -0.06 l3.02 0 q0.04 0 0.04 0.06 q0 0.04 -0.04 0.04 z M31.4 11.1 q-0.02 0 -0.03 -0.01 t-0.03 -0.01 q0 -0.06 0.02 -0.08 l1.54 -0.9 q0.06 -0.06 0.06 0.02 q0.06 0.06 -0.02 0.06 l-1.52 0.9 z M32.019999999999996 12.9 l-0.02 0 q-0.04 0 -0.04 -0.06 l0.92 -2.72 q0 -0.08 0.06 -0.02 q0.04 0 0.04 0.06 l-0.92 2.72 q0 0.02 -0.04 0.02 z M33.18 12.4 q-0.04 0 -0.04 -0.04 l-0.26 -2.2 q0 -0.06 0.04 -0.06 q0.06 0 0.06 0.04 l0.24 2.22 q0.04 0.04 -0.04 0.04 z M32.92 10.2 q-0.04 0 -0.04 -0.04 q-0.04 -0.06 0.04 -0.06 l1.9 -0.3 q0.06 -0.02 0.06 0.04 q0 0.04 -0.04 0.06 l-1.9 0.3 l-0.02 0 z M36.32 10.38 l-0.02 0 l-1.48 -0.5 q-0.04 0 -0.04 -0.06 q0.04 -0.04 0.08 -0.02 l1.48 0.48 q0.08 0 0.02 0.06 q0 0.04 -0.04 0.04 z M37.48 11.84 q-0.02 0 -0.02 -0.01 t-0.02 -0.01 l-1.16 -1.46 q-0.04 -0.04 0 -0.08 q0.04 -0.02 0.08 0.02 l1.16 1.44 q0.02 0.06 0 0.08 q-0.02 0 -0.02 0.01 t-0.02 0.01 z M37.9 13.940000000000001 q-0.02 0 -0.06 -0.04 l-0.4 -2.12 q-0.04 -0.04 0.04 -0.04 q0.02 -0.02 0.06 0.04 l0.4 2.1 q0 0.04 -0.04 0.06 z M37.879999999999995 14.7 q-0.04 0 -0.04 -0.06 l0 -0.76 q0 -0.04 0.04 -0.04 q0.06 0 0.06 0.04 l0 0.76 q0 0.06 -0.06 0.06 z M37.9 18.52 q-0.06 0 -0.06 -0.06 l0 -3.82 q0 -0.04 0.04 -0.04 q0.06 0 0.06 0.04 l0 3.84 q0 0.04 -0.04 0.04 z M33.18 12.4 q-0.04 0 -0.04 -0.02 q-0.06 -0.06 0.02 -0.06 l1.64 -1.04 q0.04 -0.02 0.08 0.02 q0.06 0.06 -0.02 0.06 l-1.66 1.04 l-0.02 0 z M34.84 11.38 q-0.02 0 -0.04 -0.02 l-1.9 -1.18 q-0.08 0 -0.02 -0.06 q0.04 -0.04 0.06 -0.02 l1.92 1.18 q0.04 0.04 0.02 0.08 q-0.02 0 -0.02 0.01 t-0.02 0.01 z M34.82 11.38 q-0.04 0 -0.04 -0.06 l0 -1.48 q0 -0.04 0.04 -0.04 q0.06 0 0.06 0.04 l0 1.48 q0 0.06 -0.06 0.06 z M34.4 13.059999999999999 l-0.02 0 q-0.04 0 -0.04 -0.06 l0.44 -1.7 q0 -0.08 0.06 -0.02 q0.04 0 0.04 0.06 l-0.44 1.68 q0 0.04 -0.04 0.04 z M34.82 11.38 l-0.04 -0.04 q0 -0.04 0.02 -0.06 l1.5 -1 q0.02 -0.02 0.06 0.02 q0.06 0.06 -0.02 0.06 l-1.48 1 q-0.02 0 -0.02 0.01 t-0.02 0.01 z M37.48 11.84 l0 -0.02 l-2.66 -0.44 q-0.04 -0.04 -0.04 -0.06 q0 -0.1 0.06 -0.04 l2.66 0.46 q0.04 0 0.04 0.04 q-0.04 0.06 -0.06 0.06 z M36.32 13.24 q-0.02 0 -0.04 -0.02 l-1.5 -1.86 q0 -0.06 0.02 -0.08 q0.06 -0.06 0.06 0 l1.5 1.88 q0.04 0.04 0 0.08 l-0.04 0 z M36.32 13.24 l-1.92 -0.18 q-0.06 0 -0.06 -0.06 q0 -0.04 0.06 -0.04 l1.92 0.18 q0.06 0 0.06 0.06 q-0.04 0.04 -0.06 0.04 z M34.879999999999995 14.5 l-0.02 -0.02 q-0.04 -0.04 0 -0.08 l1.42 -1.24 q0.04 -0.04 0.08 0 t0 0.08 l-1.44 1.24 q-0.02 0.02 -0.04 0.02 z M36.32 13.24 l-0.04 0 q-0.04 -0.04 0 -0.08 l1.16 -1.42 q0.04 -0.04 0.08 0 t0 0.08 l-1.16 1.4 q-0.02 0.02 -0.04 0.02 z M37.879999999999995 13.940000000000001 q0 -0.02 -0.02 -0.02 l-1.56 -0.68 q-0.08 0 -0.02 -0.06 q0 -0.08 0.06 -0.02 l1.56 0.68 q0.04 0 0.04 0.06 q-0.04 0.04 -0.06 0.04 z M36.32 15.24 q-0.04 0 -0.04 -0.06 l0 -1.98 q0 -0.04 0.04 -0.04 q0.06 0 0.06 0.04 l0 1.98 q0 0.06 -0.06 0.06 z M36.32 15.24 q0 -0.02 -0.02 -0.02 l-1.44 -0.74 q-0.02 0 -0.02 -0.06 q0.04 -0.04 0.08 -0.02 l1.44 0.74 q0.02 0 0.02 0.06 q-0.04 0.04 -0.06 0.04 z M36.32 15.24 l-0.02 -0.02 q-0.04 -0.04 0 -0.08 l1.56 -1.3 q0.02 -0.02 0.06 0 q0.02 0.06 0 0.08 l-1.56 1.3 q-0.02 0.02 -0.04 0.02 z M37.9 16.1 l-0.02 -0.02 l-1.58 -0.86 q-0.02 0 -0.02 -0.06 q0.04 -0.04 0.08 -0.02 l1.56 0.86 q0.04 0.04 0.02 0.06 z M34.879999999999995 16.78 l-0.02 -0.02 q-0.04 -0.04 0 -0.08 l1.44 -1.54 q0.02 -0.02 0.06 0 q0.04 0.04 0 0.08 l-1.44 1.54 q-0.02 0.02 -0.04 0.02 z M36.5 17.02 q-0.06 0 -0.06 -0.04 l-0.16 -1.8 q0 -0.04 0.04 -0.04 q0.06 -0.02 0.06 0.04 l0.16 1.78 q0 0.06 -0.04 0.06 z M37.9 18.52 q-0.02 0 -0.04 -0.02 l-1.4 -1.5 q-0.04 -0.04 0 -0.08 q0.06 0 0.06 0.02 l1.42 1.5 q0.02 0.04 0 0.06 t-0.04 0.02 z M36.5 17.02 l-0.04 -0.02 q-0.04 -0.04 0 -0.08 l1.4 -0.92 q0.04 -0.02 0.08 0.02 q0.02 0.02 -0.02 0.06 l-1.4 0.92 z M34.9 20.06 q-0.06 0 -0.06 -0.06 l0 -1.7 q0 -0.06 0.06 -0.06 q0.04 0 0.04 0.06 l0 1.7 q0 0.06 -0.04 0.06 z M34.9 20.06 l-0.04 -0.02 q-0.04 -0.04 0 -0.08 l1.26 -1.16 q0.04 -0.04 0.08 0 q0.02 0.04 -0.02 0.08 l-1.26 1.16 z M36.16 18.9 q-0.02 0 -0.02 -0.02 l-1.26 -0.54 q-0.04 -0.04 -0.02 -0.06 q0 -0.04 0.06 -0.04 l1.26 0.56 q0.08 0 0.02 0.06 q0 0.04 -0.04 0.04 z M36.16 18.9 q-0.02 0 -0.06 -0.04 q0 -0.06 0.04 -0.06 l1.74 -0.38 q0.06 0 0.06 0.04 q0.06 0.06 -0.04 0.06 z M37.9 20.06 q-0.02 0 -0.04 -0.02 l-1.74 -1.16 q-0.04 -0.02 0 -0.06 q0 -0.08 0.06 -0.02 l1.74 1.16 q0.04 0.06 0.02 0.08 q-0.02 0 -0.02 0.01 t-0.02 0.01 z M37.9 20.06 q-0.06 0 -0.06 -0.06 l0 -1.52 q0 -0.06 0.06 -0.06 q0.04 0 0.04 0.06 l0 1.52 q0 0.06 -0.04 0.06 z M36.16 18.9 q-0.04 0 -0.04 -0.04 l-1.28 -2.12 q0 -0.04 0.02 -0.06 t0.08 0.02 l1.26 2.12 q0.06 0.06 -0.02 0.06 z M36.5 17.02 l-0.02 0 l-1.6 -0.24 q-0.04 -0.04 -0.04 -0.06 q0 -0.06 0.06 -0.04 l1.6 0.24 q0.04 0 0.04 0.06 q0 0.04 -0.04 0.04 z M36.16 18.9 l-0.02 0 q-0.04 -0.04 -0.04 -0.06 l0.34 -1.88 q0 -0.04 0.06 -0.04 q0.04 0 0.04 0.06 l-0.34 1.88 q0 0.04 -0.04 0.04 z M37.9 20.06 l-3 0 q-0.06 0 -0.06 -0.04 q0 -0.06 0.06 -0.06 l3 0 q0.04 0 0.04 0.06 q0 0.04 -0.04 0.04 z M46.36 11.14 l-0.02 0 q-0.06 -0.04 -0.02 -0.08 l0.78 -1.32 q0.02 -0.02 0.08 -0.02 q0.04 0.04 0 0.08 l-0.78 1.32 q-0.02 0.02 -0.04 0.02 z M46.36 11.14 q-0.02 0 -0.02 -0.02 l-1.28 -1 q-0.02 -0.02 0 -0.08 q0.02 -0.02 0.06 0 l1.28 1 q0.04 0.04 0 0.08 q0 0.02 -0.04 0.02 z M45.1 10.12 q-0.06 0 -0.06 -0.04 t0.04 -0.04 l2.06 -0.32 q0.06 0 0.06 0.04 q0 0.06 -0.04 0.06 z M43.24 11.28 q-0.02 0 -0.04 -0.02 t0.02 -0.06 l1.84 -1.16 q0.06 -0.02 0.08 0.02 q0.02 0.02 -0.02 0.06 l-1.84 1.16 l-0.04 0 z M42.160000000000004 12.9 l-0.02 0 q-0.06 -0.04 -0.02 -0.08 l1.08 -1.6 q0.04 -0.06 0.08 -0.02 q0.02 0.04 0 0.06 l-1.08 1.62 q0 0.02 -0.04 0.02 z M41.760000000000005 14.8 q-0.04 0 -0.04 -0.06 l0.4 -1.9 q0 -0.04 0.06 -0.04 q0.04 0 0.04 0.06 l-0.4 1.9 q0 0.04 -0.06 0.04 z M42.1 16.98 q-0.04 0 -0.04 -0.04 l-0.34 -2.18 q0 -0.02 0.04 -0.06 q0.06 0 0.06 0.06 l0.34 2.16 q0 0.06 -0.04 0.06 l-0.02 0 z M43.14 18.68 q-0.04 0 -0.04 -0.02 l-1.04 -1.7 q-0.06 -0.06 0.02 -0.06 q0.06 -0.06 0.06 0 l1.04 1.72 q0.04 0.04 -0.02 0.06 l-0.02 0 z M44.64 19.8 l-0.02 0 l-1.5 -1.12 q-0.06 -0.04 -0.02 -0.08 q0.02 -0.02 0.08 0 l1.5 1.12 q0.02 0.04 0 0.06 q0 0.02 -0.04 0.02 z M46.540000000000006 20.26 l-1.9 -0.46 q-0.08 0 -0.04 -0.06 q0 -0.04 0.06 -0.04 l1.9 0.46 q0.04 0.04 0.04 0.06 q-0.04 0.04 -0.06 0.04 z M46.540000000000006 20.26 q-0.04 0 -0.04 -0.04 q0 -0.06 0.04 -0.06 l1.96 -0.22 q0.04 -0.04 0.04 0.04 q0.02 0.02 -0.04 0.06 l-1.94 0.22 l-0.02 0 z M48.5 20.04 q-0.04 0 -0.04 -0.04 q-0.02 -0.02 0.02 -0.06 l1.86 -0.98 q0.04 -0.04 0.08 0.02 q0 0.04 -0.02 0.06 l-1.88 0.98 z M50.36 19.04 l-0.02 0 q-0.02 -0.02 -0.02 -0.08 l1.28 -1.68 q0.04 -0.04 0.06 -0.02 q0.06 0.04 0.02 0.08 l-1.28 1.68 q0 0.02 -0.04 0.02 z M51.64 17.36 l-0.02 0 q-0.04 -0.04 -0.02 -0.06 l0.46 -2.04 q0.02 -0.04 0.06 -0.04 q0.1 0 0.04 0.06 l-0.48 2.04 q0 0.04 -0.04 0.04 z M52.120000000000005 15.32 q-0.06 0 -0.06 -0.04 l-0.28 -2.1 q0 -0.06 0.04 -0.06 q0.06 0 0.06 0.04 l0.28 2.1 q0 0.06 -0.04 0.06 z M51.84 13.219999999999999 q-0.04 0 -0.04 -0.02 l-0.98 -1.68 q-0.02 -0.06 0.02 -0.08 q0.04 0 0.06 0.02 l0.98 1.68 q0.02 0.04 -0.02 0.08 l-0.02 0 z M49.120000000000005 10.24 l-0.02 0 l-1.96 -0.42 q-0.04 0 -0.04 -0.06 q0 -0.04 0.06 -0.04 l1.96 0.42 q0.04 0 0.04 0.06 q0 0.04 -0.04 0.04 z M50.86 11.54 q-0.02 0 -0.04 -0.02 l-1.74 -1.3 q-0.02 -0.02 -0.02 -0.06 q0.04 -0.04 0.08 -0.02 l1.74 1.3 q0.06 0.04 0.02 0.08 q-0.02 0.02 -0.04 0.02 z M48.82000000000001 11.86 l-2.46 -0.72 q-0.06 -0.04 -0.04 -0.06 q0 -0.04 0.06 -0.04 l2.46 0.74 q0.04 0 0.04 0.06 q-0.02 0.02 -0.06 0.02 z M48.82000000000001 11.86 q-0.02 0 -0.04 -0.02 l-1.68 -2.04 q-0.02 -0.02 0.02 -0.06 q0.02 -0.02 0.06 0 l1.68 2.04 q0.04 0.04 0 0.08 l-0.04 0 z M48.82000000000001 11.86 q-0.04 0 -0.04 -0.06 l0.28 -1.62 q0 -0.04 0.06 -0.04 q0.04 0 0.04 0.06 l-0.28 1.62 q-0.02 0.04 -0.06 0.04 z M48.82000000000001 11.86 q-0.04 0 -0.04 -0.04 t0.04 -0.06 l2.04 -0.32 q0.04 0 0.04 0.04 q0.06 0.06 -0.04 0.06 l-2.02 0.32 l-0.02 0 z M50.660000000000004 14.14 q-0.04 0 -0.04 -0.02 q-0.04 -0.02 0 -0.06 l1.18 -0.92 q0.04 -0.04 0.08 0 q0.02 0.04 -0.02 0.08 l-1.18 0.92 l-0.02 0 z M50.660000000000004 14.14 q-0.06 0 -0.06 -0.04 l0.2 -2.62 q0.04 -0.04 0.06 -0.04 q0.06 0 0.04 0.06 l-0.2 2.6 q0 0.04 -0.04 0.04 z M50.660000000000004 14.14 q-0.04 0 -0.04 -0.02 l-1.84 -2.28 q-0.02 -0.02 0.02 -0.06 q0.02 -0.02 0.06 0 l1.84 2.28 q0.02 0.04 -0.02 0.08 l-0.02 0 z M48.84 13.68 q-0.06 0 -0.06 -0.04 l0 -1.82 q0 -0.06 0.04 -0.06 q0.06 0 0.06 0.06 l0 1.8 q0 0.06 -0.04 0.06 z M50.660000000000004 14.14 l-0.02 0 l-1.82 -0.46 q-0.04 0 -0.04 -0.06 q0.02 -0.04 0.06 -0.04 l1.82 0.46 q0.04 0.02 0.04 0.08 q0 0.02 -0.04 0.02 z M48.84 13.68 q-0.04 0 -0.04 -0.02 l-0.86 -0.84 q-0.04 -0.02 0 -0.06 t0.08 0 l0.84 0.84 q0.02 0.04 0 0.06 z M47.980000000000004 12.84 l-0.02 0 q-0.06 -0.04 -0.02 -0.08 l0.84 -0.98 q0.04 -0.04 0.08 0 q0.02 0.02 0 0.08 l-0.84 0.96 q0 0.02 -0.04 0.02 z M47.980000000000004 12.84 l-1.44 -0.26 q-0.04 0 -0.04 -0.06 q0 -0.04 0.06 -0.04 l1.44 0.26 q0.04 0 0.04 0.06 q-0.04 0.04 -0.06 0.04 z M47.980000000000004 12.84 q-0.02 0 -0.04 -0.02 l-1.62 -1.7 q-0.02 -0.02 0.02 -0.06 q0.02 -0.02 0.06 0 l1.62 1.7 q0.06 0.06 0 0.06 q-0.02 0.02 -0.04 0.02 z M46.540000000000006 12.6 q-0.04 0 -0.04 -0.06 l-0.18 -1.46 q0 -0.04 0.04 -0.04 q0.06 -0.02 0.06 0.04 l0.18 1.46 q0 0.02 -0.04 0.06 l-0.02 0 z M45.300000000000004 13.34 q-0.02 0 -0.04 -0.02 q-0.04 -0.02 0.02 -0.08 l1.24 -0.74 q0.02 -0.02 0.08 0.02 q0 0.04 -0.02 0.06 l-1.24 0.76 l-0.04 0 z M44.7 14.64 l-0.02 0 q-0.04 -0.04 -0.02 -0.08 l0.6 -1.28 q0.02 -0.04 0.06 -0.04 q0.04 0.02 0.04 0.08 l-0.6 1.28 q-0.04 0.04 -0.06 0.04 z M44.96 16.28 q-0.06 0 -0.06 -0.04 l-0.24 -1.64 q0 -0.06 0.04 -0.06 q0.02 0 0.06 0.04 l0.24 1.64 q0 0.06 -0.04 0.06 z M45.900000000000006 17.240000000000002 l-0.04 0 l-0.94 -0.98 q-0.04 -0.02 0 -0.06 t0.08 0 l0.94 0.96 q0.04 0.04 0 0.08 l-0.04 0 z M47.32000000000001 17.52 l-1.42 -0.28 q-0.08 0 -0.04 -0.06 q0 -0.04 0.04 -0.04 l1.44 0.28 q0.04 0.04 0.04 0.06 q-0.02 0.04 -0.06 0.04 z M47.32000000000001 17.52 q-0.02 0 -0.04 -0.02 q-0.06 -0.06 0.02 -0.06 l1.2 -0.72 q0.02 -0.02 0.06 0.02 q0.06 0.06 -0.02 0.06 l-1.18 0.72 l-0.04 0 z M48.52 16.82 q-0.02 0 -0.02 -0.02 q-0.08 0 -0.02 -0.06 l0.52 -0.96 q0.02 -0.02 0.06 -0.02 q0.06 0.04 0.02 0.08 l-0.52 0.94 q0 0.04 -0.04 0.04 z M49.040000000000006 15.86 q-0.04 0 -0.04 -0.06 l0.1 -1.16 q0.02 -0.06 0.06 -0.06 q0.04 0.04 0.04 0.06 l-0.1 1.18 q0 0.04 -0.06 0.04 z M49.160000000000004 14.68 q-0.04 0 -0.06 -0.02 l-0.32 -1.02 q0 -0.02 0.04 -0.06 q0.06 0 0.06 0.04 l0.32 1 q0.06 0.06 -0.02 0.06 l-0.02 0 z M45.300000000000004 13.34 l-0.02 0 q-0.04 -0.04 -0.02 -0.08 l1.06 -2.2 q0.02 -0.02 0.06 -0.02 q0.06 0.02 0.02 0.06 l-1.04 2.22 q-0.02 0.02 -0.06 0.02 z M44.42 12.14 q-0.04 0 -0.04 -0.04 q-0.02 -0.02 0.02 -0.06 l1.94 -1 q0.06 0 0.06 0.02 q0.04 0.04 -0.02 0.08 l-1.94 0.98 q0 0.02 -0.02 0.02 z M44.42 12.14 l-0.02 0 q-0.04 -0.04 -0.02 -0.08 l0.66 -2 q0.04 -0.04 0.08 -0.02 q0.04 0 0.02 0.06 l-0.66 2 q-0.04 0.04 -0.06 0.04 z M44.42 12.14 q-0.02 0 -0.02 -0.02 l-1.18 -0.84 q-0.04 -0.04 -0.02 -0.06 q0.04 -0.06 0.08 -0.02 l1.18 0.84 q0.04 0.04 0 0.08 q-0.02 0.02 -0.04 0.02 z M45.300000000000004 13.34 q-0.02 0 -0.04 -0.02 l-0.88 -1.2 q-0.04 -0.02 0.02 -0.08 q0.02 -0.02 0.06 0.02 l0.88 1.2 q0.04 0.04 0 0.08 l-0.04 0 z M44.7 14.64 q-0.04 0 -0.04 -0.04 l-0.28 -2.52 q0 -0.04 0.04 -0.04 q0.06 -0.02 0.06 0.04 l0.28 2.5 q0 0.06 -0.04 0.06 l-0.02 0 z M42.160000000000004 12.9 q-0.04 0 -0.04 -0.04 q-0.02 -0.02 0.02 -0.06 l2.28 -0.76 q0.02 -0.02 0.06 0.02 q0 0.06 -0.04 0.06 l-2.26 0.78 l-0.02 0 z M43.14 14.48 l-0.04 -0.02 l-0.98 -1.58 q-0.04 -0.02 0.02 -0.08 q0.06 0 0.06 0.02 l0.98 1.58 q0.06 0.06 -0.02 0.06 z M43.14 14.48 q-0.02 0 -0.02 -0.02 q-0.08 0 -0.02 -0.06 l1.28 -2.34 q0.04 -0.04 0.08 -0.02 q0.02 0.02 0.02 0.06 l-1.3 2.36 q-0.02 0.02 -0.04 0.02 z M44.7 14.64 l-1.56 -0.16 q-0.1 0 -0.04 -0.06 q0 -0.04 0.04 -0.04 l1.56 0.16 q0.06 0 0.06 0.06 q0 0.04 -0.06 0.04 z M41.760000000000005 14.8 q-0.04 0 -0.04 -0.04 t0.04 -0.06 l1.36 -0.32 q0.06 0 0.06 0.04 q0.02 0.02 -0.02 0.06 l-1.38 0.32 l-0.02 0 z M42.1 16.98 l-0.02 0 q-0.04 -0.04 -0.02 -0.06 l1.04 -2.52 q0 -0.08 0.06 -0.02 q0.04 0.04 0.02 0.06 l-1.02 2.52 q-0.02 0.02 -0.06 0.02 z M44.96 16.28 q-0.04 0 -0.04 -0.02 l-1.82 -1.8 q-0.04 -0.02 0 -0.06 t0.08 0 l1.82 1.8 l0 0.06 z M42.1 16.98 q-0.06 0 -0.06 -0.04 q0 -0.06 0.06 -0.06 l1.66 -0.02 q0.04 0 0.04 0.04 q0 0.06 -0.04 0.06 z M43.760000000000005 16.96 q-0.04 0 -0.04 -0.04 l-0.62 -2.48 q-0.06 -0.06 0.02 -0.06 q0.06 0 0.06 0.04 l0.62 2.48 q0.02 0.02 -0.02 0.06 l-0.02 0 z M43.760000000000005 16.96 q-0.04 0 -0.04 -0.04 q-0.02 -0.02 0.02 -0.06 l1.2 -0.68 q0.04 0 0.06 0.02 q0.02 0.04 -0.02 0.08 l-1.2 0.66 z M43.14 18.68 l-0.02 0 q-0.08 0 -0.02 -0.06 l0.62 -1.74 q0 -0.04 0.06 -0.02 q0.08 0 0.02 0.06 l-0.62 1.74 q0 0.02 -0.04 0.02 z M45.900000000000006 17.240000000000002 l-2.14 -0.28 q-0.06 -0.02 -0.06 -0.06 q0.04 -0.06 0.06 -0.04 l2.14 0.28 q0.06 0.04 0.04 0.06 q0 0.04 -0.04 0.04 z M45.92 18.86 q-0.02 0 -0.04 -0.02 l-2.16 -1.9 q-0.02 -0.02 0 -0.08 q0.04 -0.04 0.08 0 l2.16 1.92 q0.06 0 0 0.06 q-0.02 0.02 -0.04 0.02 z M44.64 19.8 q-0.02 0 -0.04 -0.02 t0.02 -0.06 l1.26 -0.96 q0.06 0 0.08 0.02 q0.06 0.06 -0.02 0.06 l-1.26 0.96 l-0.04 0 z M45.92 18.86 l-2.78 -0.18 q-0.08 0 -0.04 -0.04 q0 -0.06 0.04 -0.06 l2.78 0.18 q0.04 0 0.04 0.06 q0 0.04 -0.04 0.04 z M45.92 18.86 q-0.06 0 -0.06 -0.06 l-0.02 -1.6 q0 -0.06 0.06 -0.06 q0.04 0 0.04 0.06 l0.02 1.6 q0 0.06 -0.04 0.06 z M45.92 18.86 q-0.02 0 -0.04 -0.02 q-0.04 -0.02 0 -0.06 l1.42 -1.34 q0.02 -0.02 0.06 0 q0.04 0.04 0 0.08 l-1.4 1.32 z M46.540000000000006 20.26 q-0.04 0 -0.04 -0.02 l-0.62 -1.42 q-0.02 -0.02 0.02 -0.06 q0.06 0 0.06 0.02 l0.64 1.42 q0 0.04 -0.04 0.06 l-0.02 0 z M45.92 18.86 q-0.06 0 -0.06 -0.06 q0 -0.04 0.06 -0.04 l2.48 -0.08 q0.06 0 0.06 0.04 q0 0.06 -0.06 0.06 z M48.400000000000006 18.78 q-0.02 -0.02 -0.04 -0.02 l-1.08 -1.24 q-0.02 -0.04 0.02 -0.08 q0.02 -0.02 0.06 0 l1.08 1.24 q0.04 0.04 0 0.08 q-0.02 0.02 -0.04 0.02 z M46.540000000000006 20.26 q-0.02 0 -0.04 -0.02 t0.02 -0.06 l1.86 -1.5 q0.04 -0.04 0.06 0.02 q0.02 0.04 0 0.06 l-1.86 1.5 l-0.04 0 z M48.5 20.04 q-0.04 0 -0.04 -0.06 l-0.1 -1.26 q0 -0.04 0.04 -0.04 q0.06 -0.02 0.06 0.04 l0.08 1.26 q0.06 0.06 -0.04 0.06 z M48.400000000000006 18.78 q-0.04 0 -0.04 -0.06 l0.1 -1.96 q0.04 -0.04 0.06 -0.04 q0.08 0 0.04 0.04 l-0.1 1.96 q0 0.06 -0.06 0.06 z M49.040000000000006 15.86 q-0.02 0 -0.04 -0.02 q-0.06 0 0 -0.06 l1.62 -1.72 q0.02 -0.02 0.06 0 q0.02 0.02 0.02 0.08 l-1.62 1.7 q-0.02 0.02 -0.04 0.02 z M52.120000000000005 15.32 q-0.02 0 -0.04 -0.02 l-1.46 -1.16 q-0.04 -0.04 0 -0.08 q0.02 -0.02 0.06 0 l1.46 1.16 q0.04 0.06 0.02 0.08 t-0.04 0.02 z M50.36 16.4 q-0.04 0 -0.04 -0.06 l0.28 -2.24 q0 -0.06 0.06 -0.06 q0.04 0.04 0.04 0.06 l-0.28 2.26 q0 0.04 -0.06 0.04 z M51.64 17.36 q-0.02 0 -0.04 -0.02 l-1.26 -0.96 q-0.02 0 -0.02 -0.06 q0.02 -0.02 0.08 -0.02 l1.26 0.96 q0.06 0.04 0.02 0.08 q-0.02 0.02 -0.04 0.02 z M50.36 16.4 q-0.02 0 -0.04 -0.02 q0 -0.06 0.02 -0.08 l1.74 -1.08 q0.06 0 0.08 0.02 q0.02 0.04 -0.02 0.08 l-1.74 1.08 l-0.04 0 z M50.36 16.4 l-0.02 0 l-1.32 -0.54 q-0.04 -0.04 -0.02 -0.06 q0 -0.04 0.06 -0.04 l1.32 0.54 q0.04 0.02 0.04 0.06 q-0.04 0.04 -0.06 0.04 z M48.52 16.82 q-0.04 0 -0.04 -0.04 q-0.04 -0.06 0.02 -0.06 l1.86 -0.42 q0.02 0 0.06 0.04 q0 0.06 -0.04 0.06 z M50.36 19.06 q-0.04 0 -0.04 -0.06 l0 -2.66 q0 -0.04 0.04 -0.04 q0.06 0 0.06 0.04 l0 2.66 q0 0.06 -0.06 0.06 z M50.36 19.06 l-0.02 -0.02 l-1.86 -2.24 q-0.04 -0.04 0 -0.08 t0.08 0.02 l1.84 2.22 q0.02 0.06 0 0.08 t-0.04 0.02 z M50.36 19.06 l-1.96 -0.28 q-0.04 -0.04 -0.04 -0.06 q0 -0.06 0.06 -0.04 l1.96 0.28 q0.04 0 0.04 0.04 q0 0.06 -0.06 0.06 z M56.080000000000005 12.059999999999999 q-0.04 0 -0.04 -0.06 l0 -1.98 q0 -0.04 0.04 -0.04 q0.06 0 0.06 0.04 l0 1.98 q0 0.06 -0.06 0.06 z M56.080000000000005 12.059999999999999 q0 -0.02 -0.02 -0.02 q-0.02 -0.02 -0.02 -0.06 l1.26 -1.98 q0.04 -0.04 0.08 -0.02 q0.02 0.04 0 0.06 l-1.24 1.98 q-0.04 0.04 -0.06 0.04 z M57.34 10.08 l-1.26 0 q-0.06 0 -0.06 -0.04 q0 -0.06 0.06 -0.06 l1.26 0 q0.04 0 0.04 0.06 q0 0.04 -0.04 0.04 z M57.34 10.08 q-0.06 0 -0.06 -0.04 q0 -0.06 0.06 -0.06 l1.74 -0.02 q0.04 0 0.04 0.06 q0 0.04 -0.04 0.04 z M59.06 11.66 q-0.04 0 -0.04 -0.06 l0 -1.58 q0 -0.04 0.04 -0.04 q0.06 0 0.06 0.04 l0 1.58 q0 0.06 -0.06 0.06 z M59.06 11.66 l-0.02 -0.02 l-1.72 -1.58 q-0.06 -0.04 -0.02 -0.08 t0.08 0 l1.72 1.58 q0.04 0.04 0 0.08 q-0.02 0.02 -0.04 0.02 z M57.34 12.32 l-0.02 0 l-1.24 -0.28 q-0.04 0 -0.04 -0.04 q0 -0.1 0.06 -0.04 l1.24 0.26 q0.1 0 0.04 0.06 q0 0.04 -0.04 0.04 z M57.34 12.32 q-0.06 0 -0.06 -0.06 l0.02 -2.24 q0 -0.04 0.04 -0.04 q0.06 0 0.06 0.04 l-0.02 2.26 q0 0.04 -0.04 0.04 z M57.34 12.32 q-0.04 0 -0.04 -0.04 q-0.02 -0.02 0.02 -0.06 l1.74 -0.66 q0.02 -0.02 0.06 0.02 q0 0.06 -0.04 0.06 l-1.72 0.68 l-0.02 0 z M56.080000000000005 13.92 q-0.04 0 -0.04 -0.06 l0 -1.86 q0 -0.04 0.04 -0.04 q0.06 0 0.06 0.04 l0 1.86 q0 0.06 -0.06 0.06 z M56.080000000000005 13.92 l-0.02 -0.02 q-0.02 -0.02 -0.02 -0.06 l1.26 -1.6 q0.02 -0.02 0.06 -0.02 q0.06 0.04 0.02 0.08 l-1.26 1.6 q-0.02 0.02 -0.04 0.02 z M57.7 14.3 q-0.04 0 -0.04 -0.04 l-0.38 -1.98 q0 -0.06 0.04 -0.06 q0.06 0 0.06 0.04 l0.38 1.98 q0 0.06 -0.04 0.06 l-0.02 0 z M57.7 14.3 l-1.62 -0.4 q-0.04 0 -0.04 -0.06 q0 -0.08 0.06 -0.02 l1.62 0.38 q0.04 0 0.04 0.06 q-0.04 0.04 -0.06 0.04 z M59.760000000000005 13.52 l-0.04 -0.04 l-0.7 -1.86 q0 -0.06 0.04 -0.06 q0.02 -0.02 0.06 0.02 l0.7 1.88 q0 0.04 -0.04 0.06 l-0.02 0 z M59.760000000000005 13.52 l-0.02 0 l-2.42 -1.2 q-0.04 -0.04 -0.02 -0.08 q0 -0.02 0.06 -0.02 l2.44 1.2 q0.02 0.02 0.02 0.08 q-0.02 0 -0.03 0.01 t-0.03 0.01 z M57.7 14.3 q-0.04 0 -0.04 -0.04 q-0.02 -0.02 0.02 -0.06 l2.08 -0.78 q0.04 0 0.06 0.04 q0 0.04 -0.04 0.06 l-2.06 0.78 l-0.02 0 z M59.2 14.719999999999999 l-0.02 0 q-0.08 0 -0.02 -0.06 l0.56 -1.22 q0.02 -0.02 0.08 -0.02 q0.02 0.02 0.02 0.06 l-0.58 1.22 q0 0.02 -0.04 0.02 z M59.36000000000001 16.22 q-0.04 0 -0.04 -0.04 l-0.16 -1.5 q0 -0.04 0.04 -0.06 q0.02 0 0.06 0.06 l0.16 1.48 q0 0.06 -0.04 0.06 l-0.02 0 z M60.24 17.240000000000002 l-0.04 -0.02 l-0.88 -1.02 q0 -0.06 0.02 -0.08 t0.06 0.02 l0.88 1.02 q0 0.04 -0.02 0.06 z M59.760000000000005 13.52 q-0.02 0 -0.04 -0.02 q0 -0.06 0.02 -0.08 l1 -0.64 q0.06 0 0.08 0.02 q0 0.06 -0.02 0.08 l-1 0.64 l-0.04 0 z M62 12.98 l-1.24 -0.1 q-0.04 0 -0.04 -0.06 q0 -0.04 0.06 -0.04 l1.22 0.1 q0.06 0 0.06 0.06 q-0.04 0.04 -0.06 0.04 z M63.02 13.92 q-0.02 0 -0.02 -0.01 t-0.02 -0.01 l-1.02 -0.94 q-0.04 -0.02 0 -0.06 t0.08 0 l1.02 0.92 q0.04 0.04 0 0.08 q-0.02 0 -0.02 0.01 t-0.02 0.01 z M63.36000000000001 15.219999999999999 q-0.04 0 -0.04 -0.04 l-0.34 -1.3 q-0.04 -0.06 0.02 -0.06 q0.06 -0.02 0.06 0.02 l0.36 1.3 q0 0.04 -0.04 0.08 l-0.02 0 z M63.02 16.72 l-0.02 0 q-0.06 0 -0.02 -0.06 l0.34 -1.5 q0 -0.1 0.06 -0.04 q0.04 0 0.04 0.06 l-0.36 1.5 q0 0.04 -0.04 0.04 z M62.220000000000006 17.36 q-0.02 0 -0.02 -0.01 t-0.02 -0.01 q-0.04 -0.04 0.02 -0.08 l0.78 -0.62 q0.06 -0.02 0.08 0 q0.04 0.04 0 0.08 l-0.8 0.62 q-0.02 0.02 -0.04 0.02 z M61.28 17.66 q-0.02 0 -0.06 -0.04 q0 -0.06 0.04 -0.06 l0.94 -0.3 q0.06 -0.02 0.06 0.02 q0.02 0.04 -0.02 0.08 z M61.28 17.66 l-0.02 0 l-1.04 -0.42 q-0.04 -0.02 -0.04 -0.08 q0.04 -0.04 0.08 -0.02 l1.04 0.42 q0.02 0.02 0.02 0.06 t-0.04 0.04 z M59.06 11.66 l-0.02 -0.02 q-0.04 -0.04 0 -0.08 l1.4 -1.4 q0.02 -0.02 0.06 0 q0.04 0.04 0 0.08 l-1.4 1.4 q-0.02 0.02 -0.04 0.02 z M59.760000000000005 13.52 q-0.04 0 -0.04 -0.06 l0.7 -3.28 q0.04 -0.04 0.06 -0.04 q0.04 0.02 0.04 0.06 l-0.7 3.28 q0 0.04 -0.06 0.04 z M60.78 12.879999999999999 q-0.06 0 -0.06 -0.04 l-0.3 -2.64 q0 -0.02 0.04 -0.06 q0.06 0 0.06 0.06 l0.3 2.62 q0 0.06 -0.04 0.06 z M62 12.98 l-0.02 0 q-0.04 -0.04 -0.02 -0.06 l0.5 -1.42 q0.04 -0.04 0.06 -0.04 q0.04 0.02 0.04 0.08 l-0.52 1.4 q0 0.04 -0.04 0.04 z M60.78 12.879999999999999 q-0.04 0 -0.04 -0.02 q-0.06 -0.06 0 -0.06 l1.74 -1.32 q0.04 -0.04 0.08 0 q0 0.06 -0.02 0.08 l-1.74 1.32 l-0.02 0 z M60.480000000000004 10.24 q-0.04 0 -0.06 -0.04 q0 -0.02 0.04 -0.06 l1.7 -0.4 q0.06 0 0.06 0.04 q0 0.06 -0.04 0.06 z M62.52 11.56 q-0.06 0 -0.06 -0.04 l-0.34 -1.72 q0 -0.02 0.04 -0.06 q0.06 0 0.06 0.04 l0.34 1.72 q0 0.06 -0.04 0.06 z M62.52 11.56 l-0.04 0 l-2.04 -1.32 q-0.04 -0.02 0 -0.06 q0 -0.08 0.06 -0.02 l2.04 1.32 q0.02 0 0.02 0.06 z M63.74 10.2 l-1.58 -0.36 q-0.04 0 -0.04 -0.06 q0 -0.04 0.06 -0.04 l1.58 0.36 q0.04 0 0.04 0.06 q-0.04 0.04 -0.06 0.04 z M62.52 11.56 l-0.04 0 q-0.04 -0.04 0 -0.08 l1.22 -1.36 q0.04 -0.04 0.08 0 q0.06 0 0 0.06 l-1.24 1.36 z M63.02 13.92 q-0.04 0 -0.04 -0.04 l-0.52 -2.36 q0 -0.02 0.04 -0.06 q0.06 0 0.06 0.04 l0.5 2.36 q0.04 0.04 -0.02 0.04 z M64.92 11.06 l-0.04 0 l-1.16 -0.88 q-0.08 0 -0.02 -0.06 q0.02 -0.02 0.08 -0.02 l1.16 0.88 q0.02 0 0.02 0.06 z M64.32000000000001 12.74 q-0.04 -0.02 -0.04 -0.06 l0.58 -1.68 q0.02 -0.04 0.06 -0.04 q0.04 0.02 0.04 0.06 l-0.58 1.68 q-0.04 0.04 -0.06 0.04 z M64.32000000000001 12.74 q-0.04 0 -0.04 -0.04 l-0.58 -2.54 q0 -0.06 0.04 -0.06 t0.06 0.04 l0.58 2.54 q0 0.06 -0.04 0.06 l-0.02 0 z M64.32000000000001 12.74 q-0.02 0 -0.02 -0.02 l-1.82 -1.16 q-0.02 -0.02 -0.02 -0.08 q0.04 -0.04 0.08 0 l1.82 1.16 q0.02 0.02 0.02 0.08 q-0.02 0 -0.03 0.01 t-0.03 0.01 z M63.02 13.92 q-0.02 0 -0.02 -0.01 t-0.02 -0.01 q-0.04 -0.04 0 -0.08 l1.32 -1.16 q0.02 -0.02 0.06 0 q0.02 0.04 0 0.06 l-1.3 1.18 q-0.02 0 -0.02 0.01 t-0.02 0.01 z M63.36000000000001 15.219999999999999 l-0.02 -0.02 q-0.02 0 -0.02 -0.06 l0.96 -2.48 q0.02 -0.02 0.06 -0.02 q0.04 0.02 0.04 0.06 l-0.96 2.48 q-0.04 0.04 -0.06 0.04 z M65.94 12.58 q-0.02 0 -0.04 -0.02 l-1.04 -1.52 q0 -0.06 0.02 -0.08 q0.06 0 0.08 0.02 l1.02 1.52 q0.04 0.04 0 0.08 l-0.04 0 z M64.32000000000001 12.74 q-0.04 0 -0.04 -0.04 q0 -0.06 0.04 -0.06 l1.62 -0.16 q0.06 0 0.06 0.06 q0 0.04 -0.04 0.04 l-1.62 0.16 l-0.02 0 z M66.4 14.120000000000001 q-0.04 0 -0.04 -0.04 l-0.46 -1.54 q0 -0.04 0.04 -0.06 q0.02 0 0.06 0.04 l0.46 1.54 q0 0.06 -0.04 0.06 l-0.02 0 z M64.82000000000001 15.02 q-0.04 0 -0.04 -0.04 l-0.5 -2.28 q0 -0.06 0.04 -0.06 q0.06 0 0.06 0.04 l0.5 2.28 q0 0.06 -0.04 0.06 l-0.02 0 z M64.82000000000001 15.02 l-0.02 0 q-0.04 -0.04 -0.02 -0.08 l1.12 -2.42 q0.02 -0.04 0.06 -0.04 q0.04 0.02 0.04 0.08 l-1.14 2.44 q-0.02 0.02 -0.04 0.02 z M64.82000000000001 15.02 q-0.02 0 -0.04 -0.02 q-0.04 -0.02 0.02 -0.08 l1.58 -0.9 q0.06 0 0.06 0.02 q0.02 0.06 -0.02 0.08 l-1.58 0.9 l-0.02 0 z M63.36000000000001 15.219999999999999 q-0.04 0 -0.04 -0.06 q0 -0.04 0.04 -0.04 l1.46 -0.2 q0.06 0 0.06 0.04 q0 0.06 -0.04 0.06 l-1.46 0.2 l-0.02 0 z M63.02 16.72 q-0.02 0 -0.04 -0.02 q-0.04 -0.02 0 -0.06 l1.82 -1.7 q0.02 -0.02 0.06 0 q0.02 0.04 0 0.06 l-1.8 1.72 l-0.04 0 z M66.48 16.22 q-0.04 0 -0.04 -0.06 l-0.08 -2.08 q0 -0.06 0.04 -0.06 q0.06 0 0.06 0.06 l0.08 2.08 q0 0.06 -0.06 0.06 z M66.48 16.22 q-0.02 0 -0.02 -0.02 l-1.66 -1.18 q-0.06 -0.04 -0.02 -0.08 t0.08 0 l1.66 1.18 q0.04 0.04 0 0.08 q-0.02 0.02 -0.04 0.02 z M64.04 17.64 l-0.04 0 l-1.02 -0.92 q-0.04 -0.04 0 -0.08 t0.08 0 l1.02 0.92 q0.04 0.04 0 0.08 l-0.04 0 z M64.04 17.64 l-0.02 0 q-0.04 0 -0.04 -0.06 l0.8 -2.62 q0 -0.04 0.06 -0.04 q0.04 0.04 0.04 0.06 l-0.8 2.64 q0 0.02 -0.04 0.02 z M64.04 17.64 q-0.04 0 -0.04 -0.02 q-0.06 -0.06 0.02 -0.06 l1.32 -0.62 q0.06 0 0.08 0.04 q0 0.04 -0.04 0.06 l-1.32 0.6 l-0.02 0 z M65.36 17.04 q-0.04 0 -0.04 -0.04 l-0.54 -2.02 q-0.06 -0.06 0.04 -0.06 q0.02 0 0.06 0.04 l0.54 2.02 q0 0.06 -0.04 0.06 l-0.02 0 z M65.36 17.04 q-0.02 0 -0.04 -0.02 q0 -0.06 0.02 -0.06 l1.12 -0.84 q0.06 -0.06 0.06 0.02 q0.02 0.04 0 0.06 l-1.12 0.84 l-0.04 0 z M65.60000000000001 18.42 l-0.02 0 q-0.04 -0.02 -0.04 -0.06 l0.9 -2.22 q0.04 -0.04 0.06 -0.02 q0.04 0 0.04 0.06 l-0.9 2.22 q0 0.02 -0.04 0.02 z M65.60000000000001 18.42 q-0.06 0 -0.06 -0.04 l-0.22 -1.38 q0 -0.06 0.04 -0.06 q0.06 0 0.06 0.04 l0.22 1.38 q0 0.06 -0.04 0.06 z M65.60000000000001 18.42 l-0.02 0 l-1.56 -0.78 q-0.08 0 -0.02 -0.06 q0 -0.08 0.06 -0.02 l1.56 0.76 q0.04 0.06 0.02 0.08 t-0.04 0.02 z M64.18 19.72 l-0.04 0 q-0.04 -0.04 0 -0.08 l1.42 -1.3 q0.04 -0.04 0.08 0 q0 0.06 -0.02 0.06 l-1.42 1.32 l-0.02 0 z M64.18 19.72 q-0.06 0 -0.06 -0.04 l-0.14 -2.08 q0 -0.02 0.06 -0.06 q0.04 0 0.04 0.06 l0.14 2.08 q0 0.04 -0.04 0.04 z M64.04 17.64 l-0.02 0 l-1.8 -0.28 q-0.06 -0.04 -0.04 -0.06 q0 -0.04 0.04 -0.04 l1.82 0.28 q0.06 0.04 0.04 0.06 q0 0.04 -0.04 0.04 z M62.52 18.92 q-0.04 0 -0.04 -0.02 l-1.24 -1.26 q-0.04 -0.02 0 -0.06 q0.02 -0.02 0.06 0 l1.24 1.26 q0.02 0.04 0 0.06 z M62.52 18.92 q-0.06 0 -0.06 -0.04 l-0.28 -1.56 q-0.04 -0.06 0.04 -0.06 q0.02 -0.02 0.06 0.04 l0.28 1.56 q0 0.06 -0.04 0.06 z M62.52 18.92 q-0.04 0 -0.04 -0.02 q-0.04 -0.02 0 -0.06 l1.52 -1.28 q0.04 -0.04 0.08 0 t-0.02 0.08 l-1.52 1.28 l-0.02 0 z M64.18 19.72 l-0.02 0 l-1.68 -0.8 q-0.02 -0.02 -0.02 -0.08 q0.02 -0.02 0.08 -0.02 l1.66 0.82 q0.08 0 0.02 0.06 q0 0.02 -0.04 0.02 z M62.34 20.24 q-0.04 0 -0.04 -0.04 q-0.02 -0.02 0.02 -0.06 l1.84 -0.52 q0.06 0 0.06 0.04 q0.02 0.06 -0.04 0.06 l-1.82 0.52 l-0.02 0 z M62.34 20.24 q-0.08 0 -0.04 -0.06 l0.16 -1.32 q0 -0.04 0.06 -0.04 q0.04 0 0.04 0.06 l-0.16 1.32 q-0.04 0.04 -0.06 0.04 z M62.34 20.24 l-1.74 -0.44 q-0.04 0 -0.04 -0.06 q0 -0.08 0.06 -0.02 l1.74 0.42 q0.04 0 0.04 0.06 q-0.04 0.04 -0.06 0.04 z M60.6 19.82 l-0.04 -0.04 q0 -0.06 0.02 -0.06 l1.9 -0.9 q0.06 0 0.08 0.04 q0 0.04 -0.02 0.06 l-1.92 0.88 q0 0.02 -0.02 0.02 z M60.6 19.82 l-0.02 -0.02 l-1.46 -1.38 q-0.04 -0.02 0 -0.06 t0.08 0 l1.44 1.36 q0.04 0.04 0 0.08 q-0.02 0.02 -0.04 0.02 z M60.6 19.82 l0 -0.02 q-0.04 0 -0.04 -0.06 l0.66 -2.14 q0.02 -0.04 0.06 -0.04 t0.04 0.06 l-0.66 2.16 q-0.04 0.04 -0.06 0.04 z M60.6 19.82 q-0.04 0 -0.04 -0.06 l-0.38 -2.56 q0 -0.06 0.04 -0.06 q0.06 0 0.06 0.04 l0.38 2.58 q0 0.02 -0.04 0.06 l-0.02 0 z M59.160000000000004 18.44 q-0.02 0 -0.02 -0.02 q-0.04 -0.04 -0.02 -0.06 l1.08 -1.2 q0.04 -0.04 0.06 -0.02 q0.04 0.04 0 0.08 l-1.06 1.2 q0 0.02 -0.04 0.02 z M59.2 14.719999999999999 l-0.02 0 l-1.48 -0.42 q-0.06 -0.04 -0.04 -0.06 q0 -0.04 0.06 -0.04 l1.5 0.42 q0.04 0.04 0.04 0.08 q-0.02 0.02 -0.06 0.02 z M57.52 16.14 q-0.02 0 -0.04 -0.02 q-0.04 -0.04 0 -0.08 l1.7 -1.4 q0.02 -0.02 0.06 0 q0.04 0.04 0 0.08 l-1.68 1.4 q-0.02 0.02 -0.04 0.02 z M59.36000000000001 16.22 l-1.84 -0.08 q-0.04 0 -0.04 -0.06 q0 -0.04 0.04 -0.04 l1.84 0.08 q0.06 0 0.06 0.04 q0 0.06 -0.06 0.06 z M59.160000000000004 18.44 q-0.04 0 -0.04 -0.06 l0.2 -2.22 q0 -0.04 0.06 -0.04 q0.04 0 0.04 0.04 l-0.2 2.24 q0 0.04 -0.06 0.04 z M57.52 16.14 q-0.1 0 -0.04 -0.06 l0.18 -1.84 q0 -0.04 0.04 -0.04 q0.06 0 0.06 0.06 l-0.18 1.84 q-0.04 0.04 -0.06 0.04 z M57.52 16.14 l-0.04 -0.02 l-1.44 -2.24 q0 -0.04 0.02 -0.06 t0.08 0.02 l1.42 2.22 q0.06 0.06 -0.02 0.06 q0 0.02 -0.02 0.02 z M56.1 16.82 q-0.06 0 -0.06 -0.06 l0 -2.9 q0 -0.04 0.04 -0.04 q0.06 0 0.06 0.04 l0 2.92 q0 0.04 -0.04 0.04 z M56.1 16.82 q-0.02 0 -0.06 -0.04 q0 -0.04 0.02 -0.06 l1.44 -0.68 q0.06 -0.06 0.06 0.02 q0.02 0.04 -0.02 0.08 l-1.42 0.68 l-0.02 0 z M56.080000000000005 18.8 q-0.04 0 -0.04 -0.06 l0 -1.98 q0 -0.04 0.04 -0.04 q0.06 0 0.06 0.04 l0 1.98 q0 0.06 -0.06 0.06 z M56.080000000000005 18.8 q-0.04 0 -0.04 -0.06 q0 -0.04 0.04 -0.04 l1.54 -0.06 q0.04 0 0.04 0.04 q0 0.06 -0.04 0.06 l-1.52 0.06 l-0.02 0 z M57.620000000000005 18.74 l-0.04 -0.02 l-1.54 -1.92 q0 -0.06 0.02 -0.08 q0.06 -0.06 0.06 0 l1.54 1.94 q0 0.04 -0.02 0.06 z M57.620000000000005 18.74 q-0.06 0 -0.06 -0.06 l-0.08 -2.6 q0 -0.04 0.04 -0.04 q0.06 0 0.06 0.04 l0.08 2.6 q0 0.06 -0.04 0.06 z M57.620000000000005 18.74 q-0.02 0 -0.04 -0.02 q-0.04 -0.02 0 -0.06 l1.74 -2.52 q0.04 -0.04 0.08 -0.02 q0.04 0.04 0 0.08 l-1.74 2.52 z M57.620000000000005 18.74 q-0.06 0 -0.06 -0.04 q0 -0.06 0.04 -0.06 l1.56 -0.3 q0.02 0 0.06 0.04 q0 0.06 -0.04 0.06 z M59.06 20.24 q-0.04 0 -0.04 -0.06 l0.1 -1.8 q0 -0.04 0.04 -0.04 q0.06 0 0.06 0.04 l-0.1 1.82 q0 0.04 -0.06 0.04 z M59.06 20.24 q-0.02 0 -0.02 -0.02 l-1.46 -1.5 q-0.04 -0.04 0 -0.08 q0.06 -0.06 0.06 0 l1.46 1.52 q0.02 0.04 0 0.06 q0 0.02 -0.04 0.02 z M56.080000000000005 20.7 q-0.04 0 -0.04 -0.06 l0 -1.9 q0 -0.04 0.04 -0.04 q0.06 0 0.06 0.04 l0 1.9 q0 0.06 -0.06 0.06 z M56.080000000000005 20.7 l-0.02 -0.02 q-0.02 -0.02 -0.02 -0.06 l1.54 -1.96 q0.04 -0.04 0.06 -0.02 t0.02 0.08 l-1.54 1.96 q-0.02 0.02 -0.04 0.02 z M58.02 21.04 q-0.04 0 -0.04 -0.04 l-0.42 -2.3 q0 -0.06 0.04 -0.06 q0.06 0 0.06 0.04 l0.42 2.3 q0 0.06 -0.04 0.06 l-0.02 0 z M58.02 21.04 q-0.02 0 -0.04 -0.02 q0 -0.06 0.02 -0.08 l1.04 -0.78 q0.06 -0.06 0.06 0 q0.04 0.04 0 0.08 l-1.04 0.78 q-0.02 0.02 -0.04 0.02 z M58.02 21.04 l-1.94 -0.34 q-0.04 -0.04 -0.04 -0.06 q0 -0.1 0.06 -0.04 l1.94 0.34 q0.04 0 0.04 0.06 q0 0.04 -0.06 0.04 z M56.1 22.4 q-0.06 0 -0.06 -0.06 l0 -1.7 q0 -0.04 0.04 -0.04 q0.06 0 0.06 0.04 l0 1.72 q0 0.04 -0.04 0.04 z M57.580000000000005 22.94 l-0.02 0 l-1.48 -0.54 q-0.04 -0.02 -0.04 -0.06 q0.02 -0.04 0.06 -0.04 l1.5 0.54 q0.04 0.04 0.02 0.06 q0 0.04 -0.04 0.04 z M57.580000000000005 22.94 q-0.04 0 -0.04 -0.02 l-1.5 -2.26 q0 -0.04 0.02 -0.06 t0.08 0.02 l1.48 2.24 q0.02 0.04 -0.02 0.08 l-0.02 0 z M57.580000000000005 22.94 l-0.02 0 q-0.04 0 -0.04 -0.06 l0.46 -1.9 q0 -0.04 0.06 -0.04 q0.04 0 0.04 0.06 l-0.46 1.9 q0 0.04 -0.04 0.04 z M59.1 22.8 q-0.04 0 -0.04 -0.04 l-0.04 -2.56 q0 -0.04 0.04 -0.04 q0.06 0 0.06 0.04 l0.04 2.54 q0 0.06 -0.06 0.06 z M59.1 22.8 q-0.02 0 -0.02 -0.02 q-0.02 0 -0.02 -0.04 q0 -0.02 0.02 -0.02 q0.02 -0.02 0.06 0 l0.02 0.02 q0 0.04 -0.02 0.04 q0 0.02 -0.04 0.02 z M59.1 22.8 q-0.02 0 -0.04 -0.02 l-1.08 -1.76 q0 -0.06 0.02 -0.08 q0.06 0 0.08 0.02 l1.06 1.76 q0.04 0.04 -0.02 0.08 l-0.02 0 z M57.580000000000005 22.94 q-0.06 0 -0.06 -0.04 q0 -0.06 0.06 -0.06 l1.52 -0.14 q0.06 0 0.06 0.04 q0 0.06 -0.06 0.06 z M59.120000000000005 24.46 q-0.06 0 -0.06 -0.04 l0 -1.68 q0 -0.04 0.04 -0.04 q0.06 0 0.06 0.04 l0 1.68 q0 0.04 -0.04 0.04 z M59.120000000000005 24.46 l-1.6 0 q-0.06 0 -0.06 -0.04 q0 -0.06 0.06 -0.06 l1.6 0 q0.04 0 0.04 0.06 q0 0.04 -0.04 0.04 z M57.52 24.46 q-0.02 0 -0.04 -0.02 q-0.04 -0.02 0 -0.06 l1.58 -1.66 q0.04 -0.04 0.08 0 q0.02 0.04 0 0.06 l-1.58 1.66 q-0.02 0.02 -0.04 0.02 z M56.080000000000005 24.48 q-0.04 0 -0.04 -0.06 l0 -2.08 q0 -0.04 0.04 -0.04 q0.06 0 0.06 0.04 l0 2.08 q0 0.06 -0.06 0.06 z M56.080000000000005 24.48 q-0.04 0 -0.04 -0.06 q0 -0.04 0.04 -0.04 l1.44 -0.02 q0.04 0 0.04 0.06 q0 0.04 -0.04 0.04 z M56.080000000000005 24.48 l-0.02 -0.02 q-0.04 -0.04 0 -0.08 l1.48 -1.52 q0.04 -0.04 0.08 0 l0 0.06 l-1.5 1.54 q-0.02 0.02 -0.04 0.02 z M57.52 24.46 q-0.06 0 -0.06 -0.06 l0.06 -1.52 q0 -0.04 0.06 -0.04 q0.04 0 0.04 0.06 l-0.06 1.52 q0 0.04 -0.04 0.04 z"></path></g></svg>
